<svg xmlns="http://www.w3.org/2000/svg" xmlns:xlink="http://www.w3.org/1999/xlink" xmlns:lucid="lucid" width="1660" height="1032"><g transform="translate(-105.43307086614163 -80)" lucid:page-tab-id="RawrR6yKZ4ug"><path d="M125.43 246a6 6 0 0 1 6-6h388a6 6 0 0 1 6 6v272a6 6 0 0 1-6 6h-388a6 6 0 0 1-6-6z" stroke="#b2b2b2" stroke-width="3" fill="#fff"/><path d="M125.43 288h400m-400 134h400" stroke="#b2b2b2" stroke-width="3" fill="none"/><use xlink:href="#a" transform="matrix(1,0,0,1,133.43307086614163,248) translate(139.55555555555557 21.333333333333332)"/><use xlink:href="#b" transform="matrix(1,0,0,1,137.43307086614163,296) translate(120.70370370370374 32.33333333333334)"/><use xlink:href="#c" transform="matrix(1,0,0,1,137.43307086614163,296) translate(123.59259259259262 64.33333333333334)"/><use xlink:href="#d" transform="matrix(1,0,0,1,137.43307086614163,296) translate(150.2962962962963 96.33333333333333)"/><use xlink:href="#e" transform="matrix(1,0,0,1,137.43307086614163,430) translate(101.51851851851856 32.333333333333336)"/><use xlink:href="#f" transform="matrix(1,0,0,1,137.43307086614163,430) translate(150.2962962962963 64.33333333333333)"/><path d="M745.43 106a6 6 0 0 1 6-6h388a6 6 0 0 1 6 6v240a6 6 0 0 1-6 6h-388a6 6 0 0 1-6-6z" stroke="#b2b2b2" stroke-width="3" fill="#fff"/><path d="M745.43 148h400m-400 102h400" stroke="#b2b2b2" stroke-width="3" fill="none"/><use xlink:href="#g" transform="matrix(1,0,0,1,753.4330708661416,108) translate(118.92592592592595 21.333333333333332)"/><use xlink:href="#h" transform="matrix(1,0,0,1,757.4330708661416,156) translate(132.51851851851853 32.333333333333336)"/><use xlink:href="#i" transform="matrix(1,0,0,1,757.4330708661416,156) translate(142.0740740740741 64.33333333333333)"/><use xlink:href="#j" transform="matrix(1,0,0,1,757.4330708661416,258) translate(49.629629629629704 32.333333333333336)"/><use xlink:href="#k" transform="matrix(1,0,0,1,757.4330708661416,258) translate(60.740740740740804 64.33333333333333)"/><use xlink:href="#l" transform="matrix(1,0,0,1,757.4330708661416,258) translate(162.962962962963 64.33333333333333)"/><use xlink:href="#m" transform="matrix(1,0,0,1,757.4330708661416,258) translate(259.1111111111111 64.33333333333333)"/><path d="M527.9 381.98l4.12-.1 4.84-.3 4.58-.47 4.38-.64 4.2-.8 4.07-.95 3.94-1.1 3.85-1.25 3.78-1.4 3.74-1.58 3.73-1.75 3.73-1.95 3.76-2.18 3.83-2.44 3.93-2.73 4.1-3.1 4.3-3.58 4.65-4.18 5.15-5.06 6.04-6.43 7.98-9.27 37.6-46.68 6.05-6.44 5.15-5.05 4.65-4.2 4.3-3.56 4.1-3.1 3.93-2.74 3.83-2.43 3.76-2.17 3.72-1.95 3.73-1.75 3.74-1.58 3.78-1.4 3.85-1.26 3.95-1.1 4.06-.96 4.2-.8 4.4-.65 4.57-.5 4.85-.3 3.3-.07" stroke="#b2b2b2" stroke-width="2" stroke-linejoin="round" fill="none"/><path d="M527.95 382.98l-1.05.02v-2l1-.02z" stroke="#b2b2b2" stroke-width=".05" fill="#b2b2b2"/><path d="M725.48 253.38L742 242.12l-17.8-9.07" stroke="#b2b2b2" stroke-width="2" fill="none"/><use xlink:href="#n" transform="matrix(1,0,0,1,547.6675729103099,248.00990586839183) translate(0 14.222222222222223)"/><use xlink:href="#o" transform="matrix(1,0,0,1,547.6675729103099,248.00990586839183) translate(93.13580246913583 14.222222222222223)"/><path d="M745.43 530a6 6 0 0 1 6-6h388a6 6 0 0 1 6 6v208a6 6 0 0 1-6 6h-388a6 6 0 0 1-6-6z" stroke="#b2b2b2" stroke-width="3" fill="#fff"/><path d="M745.43 572h400m-400 102h400" stroke="#b2b2b2" stroke-width="3" fill="none"/><use xlink:href="#p" transform="matrix(1,0,0,1,753.4330708661416,532) translate(150.51851851851853 21.333333333333332)"/><use xlink:href="#q" transform="matrix(1,0,0,1,757.4330708661416,580) translate(159.1851851851852 32.333333333333336)"/><use xlink:href="#r" transform="matrix(1,0,0,1,757.4330708661416,580) translate(73.37037037037044 64.33333333333333)"/><use xlink:href="#s" transform="matrix(1,0,0,1,757.4330708661416,682) translate(132.55555555555557 32.33333333333333)"/><path d="M527.9 382.02l1.82.04 2.74.17 2.66.28 2.6.4 2.57.48 2.5.6 2.5.7 2.48.8 2.48.92 2.48 1.04 2.5 1.17 2.5 1.33 2.56 1.48 2.6 1.66 2.67 1.85 2.74 2.1 2.85 2.35 2.96 2.66 3.1 3.04 3.27 3.5 3.48 4.02 3.75 4.74 4.1 5.64 4.54 6.85 5.2 8.58 6.2 11.3 8.14 16.5 47.25 105.98 6.2 11.3 5.2 8.6 4.54 6.85 4.1 5.65 3.75 4.74 3.48 4.02 3.27 3.5 3.1 3.02 2.95 2.66 2.84 2.35 2.74 2.1 2.67 1.84 2.6 1.64 2.55 1.48 2.52 1.32 2.5 1.17 2.47 1.05 2.48.92 2.48.8 2.5.7 2.52.6 2.56.48 2.6.4 2.67.27 2.75.17h1" stroke="#b2b2b2" stroke-width="2" stroke-linejoin="round" fill="none"/><path d="M527.95 381.02l-.05 2-1-.02v-2z" stroke="#b2b2b2" stroke-width=".05" fill="#b2b2b2"/><path d="M723.74 647.75l18.28-8.13-15.92-12.1" stroke="#b2b2b2" stroke-width="2" fill="none"/><use xlink:href="#t" transform="matrix(1,0,0,1,636.5443962011071,482.6705821846128) translate(0 14.222222222222223)"/><path d="M1272.28 294.58a6 6 0 0 1 6-6h388a6 6 0 0 1 6 6v176a6 6 0 0 1-6 6h-388a6 6 0 0 1-6-6z" stroke="#b2b2b2" stroke-width="3" fill="#fff"/><path d="M1272.28 336.58h400m-400 70h400" stroke="#b2b2b2" stroke-width="3" fill="none"/><use xlink:href="#u" transform="matrix(1,0,0,1,1280.2834645669293,296.5826771653544) translate(156.4814814814815 21.333333333333332)"/><use xlink:href="#v" transform="matrix(1,0,0,1,1284.2834645669293,344.5826771653544) translate(148.74074074074076 32.33333333333333)"/><use xlink:href="#w" transform="matrix(1,0,0,1,1284.2834645669293,414.5826771653544) translate(148.85185185185188 32.33333333333333)"/><path d="M1147.9 633.98l.88-.06.92-.1.92-.13.9-.18.9-.22.92-.25.9-.3.93-.34.94-.38.95-.45.97-.5 1-.58 1-.65 1.06-.74 1.1-.82 1.14-.94 1.2-1.07 1.25-1.24 1.33-1.42 1.42-1.63 1.52-1.93 1.65-2.27 1.8-2.7 1.97-3.28 2.2-4.03 2.5-5.05 2.9-6.52 3.45-8.74 4.34-12.52 6.17-20.6 29.83-112.7 4.34-12.52 3.45-8.74 2.9-6.5 2.5-5.06 2.2-4.03 1.98-3.28 1.8-2.7 1.64-2.28 1.53-1.92 1.42-1.65 1.33-1.42 1.26-1.23 1.2-1.08 1.14-.94 1.1-.83 1.05-.73 1-.65 1-.58.96-.5.95-.46.94-.4.92-.33.92-.3.9-.25.9-.2.92-.2.9-.12.93-.1h.07" stroke="#b2b2b2" stroke-width="2" stroke-linejoin="round" fill="none"/><path d="M1147.94 634.98l-1.04.02v-2l1-.02z" stroke="#b2b2b2" stroke-width=".05" fill="#b2b2b2"/><path d="M1255.92 398.38l13.04-15.17-19.57-4.1" stroke="#b2b2b2" stroke-width="2" fill="none"/><use xlink:href="#x" transform="matrix(1,0,0,1,1069.2020912148455,436.513291980086) translate(0 14.222222222222223)"/><use xlink:href="#y" transform="matrix(1,0,0,1,1069.2020912148455,436.513291980086) translate(77.4814814814815 14.222222222222223)"/><path d="M1147.9 634.02l4.92.1 5.56.35 5.26.55 5 .74 4.8.92 4.63 1.08 4.48 1.25 4.37 1.43 4.3 1.6 4.23 1.78 4.22 2 4.22 2.2 4.25 2.47 4.35 2.76 4.48 3.1 4.68 3.57 4.98 4.12 5.45 4.9 6.2 6.1 7.76 8.28 13.92 16.26 24.83 29.5 7.76 8.28 6.22 6.1 5.44 4.9 5 4.14 4.67 3.55 4.47 3.12 4.34 2.76 4.28 2.47 4.22 2.2 4.2 2 4.25 1.77 4.3 1.6 4.37 1.42 4.48 1.25 4.62 1.1 4.8.9 5 .75 5.27.55 5.55.35 4.1.1" stroke="#b2b2b2" stroke-width="2" stroke-linejoin="round" fill="none"/><path d="M1147.95 633.02l-.05 2-1-.02v-2z" stroke="#b2b2b2" stroke-width=".05" fill="#b2b2b2"/><path d="M1364.25 787.47l17.76-9.2-16.6-11.13" stroke="#b2b2b2" stroke-width="2" fill="none"/><use xlink:href="#z" transform="matrix(1,0,0,1,1199.1592119141046,629.0452326579632) translate(0.0049999999999954525 14.222222222222223)"/><use xlink:href="#A" transform="matrix(1,0,0,1,1199.1592119141046,629.0452326579632) translate(61.684012345679015 14.222222222222223)"/><use xlink:href="#B" transform="matrix(1,0,0,1,1199.1592119141046,629.0452326579632) translate(143.56055555555557 14.222222222222223)"/><path d="M1385.43 658.87a6 6 0 0 1 6-6h348a6 6 0 0 1 6 6v239a6 6 0 0 1-6 6h-348a6 6 0 0 1-6-6z" stroke="#b2b2b2" stroke-width="3" fill="#fff"/><path d="M1385.43 722.47h360" stroke="#b2b2b2" stroke-width="3" fill="none"/><use xlink:href="#C" transform="matrix(1,0,0,1,1393.4330708661416,660.8740157480316) translate(119.07499999999999 14.600000000000003)"/><use xlink:href="#D" transform="matrix(1,0,0,1,1393.4330708661416,660.8740157480316) translate(46.29629629629633 43.13333333333333)"/><use xlink:href="#E" transform="matrix(1,0,0,1,1397.4330708661416,730.4740157480317) translate(15.629629629629761 71.83333333333334)"/><use xlink:href="#F" transform="matrix(1,0,0,1,1397.4330708661416,730.4740157480317) translate(65.962962962963 103.83333333333333)"/><use xlink:href="#G" transform="matrix(1,0,0,1,1397.4330708661416,730.4740157480317) translate(171 103.83333333333333)"/><path d="M125.43 846a6 6 0 0 1 6-6h388a6 6 0 0 1 6 6v240a6 6 0 0 1-6 6h-388a6 6 0 0 1-6-6z" stroke="#b2b2b2" stroke-width="3" fill="#fff"/><path d="M125.43 888h400m-400 134h400" stroke="#b2b2b2" stroke-width="3" fill="none"/><g><use xlink:href="#H" transform="matrix(1,0,0,1,133.43307086614163,848) translate(123.33333333333337 21.333333333333332)"/></g><g><use xlink:href="#I" transform="matrix(1,0,0,1,137.43307086614163,896) translate(156.1851851851852 32.33333333333334)"/><use xlink:href="#J" transform="matrix(1,0,0,1,137.43307086614163,896) translate(142.8888888888889 64.33333333333334)"/><use xlink:href="#K" transform="matrix(1,0,0,1,137.43307086614163,896) translate(142.8888888888889 96.33333333333333)"/></g><g><use xlink:href="#L" transform="matrix(1,0,0,1,137.43307086614163,1030) translate(120.00000000000003 32.33333333333333)"/></g><path d="M325.43 526.47v293.56" stroke="#b2b2b2" stroke-width="2" stroke-linejoin="round" fill="none"/><path d="M326.43 526.5h-2v-1.04h2z" stroke="#b2b2b2" stroke-width=".05" fill="#b2b2b2"/><path d="M325.43 835.3l-4.63-14.27h9.27z" stroke="#b2b2b2" stroke-width="2" fill="#b2b2b2"/><g><use xlink:href="#M" transform="matrix(1,0,0,1,333.4330708661417,650.503081674934) translate(0.004999999999999005 14.222222222222223)"/></g><path d="M765.43 849a6 6 0 0 1 6-6H1044a6 6 0 0 1 6 6v234a6 6 0 0 1-6 6H771.43a6 6 0 0 1-6-6z" stroke="#b2b2b2" stroke-width="3" fill="#fff"/><path d="M765.43 912.6H1050" stroke="#b2b2b2" stroke-width="3" fill="none"/><g><use xlink:href="#N" transform="matrix(1,0,0,1,773.4330708661416,851) translate(88.55 14.600000000000003)"/><use xlink:href="#O" transform="matrix(1,0,0,1,773.4330708661416,851) translate(32.61111111111116 43.13333333333333)"/></g><g><use xlink:href="#P" transform="matrix(1,0,0,1,777.4330708661416,920.6) translate(100.90740740740742 21.333333333333343)"/><use xlink:href="#Q" transform="matrix(1,0,0,1,777.4330708661416,920.6) translate(83.87037037037038 53.333333333333336)"/><use xlink:href="#R" transform="matrix(1,0,0,1,777.4330708661416,920.6) translate(87.64814814814817 85.33333333333333)"/><use xlink:href="#S" transform="matrix(1,0,0,1,777.4330708661416,920.6) translate(93.53703703703705 117.33333333333331)"/><use xlink:href="#T" transform="matrix(1,0,0,1,777.4330708661416,920.6) translate(92.75925925925927 149.33333333333331)"/></g><path d="M527.9 966h217.57" stroke="#b2b2b2" stroke-width="2" stroke-linejoin="round" fill="none"/><path d="M527.93 967h-1.03v-2h1.03z" stroke="#b2b2b2" stroke-width=".05" fill="#b2b2b2"/><path d="M760.73 966l-14.26 4.64v-9.28z" stroke="#b2b2b2" stroke-width="2" fill="#b2b2b2"/><defs><path fill="#333" d="M67-125c0 53 21 87 73 88 37 1 54-22 65-47l45 17C233-25 199 4 140 4 58 4 20-42 15-125 8-235 124-281 211-232c18 10 29 29 36 50l-46 12c-8-25-30-41-62-41-52 0-71 34-72 86" id="U"/><path fill="#333" d="M110-194c64 0 96 36 96 99 0 64-35 99-97 99-61 0-95-36-95-99 0-62 34-99 96-99zm-1 164c35 0 45-28 45-65 0-40-10-65-43-65-34 0-45 26-45 65 0 36 10 65 43 65" id="V"/><path fill="#333" d="M135-194c87-1 58 113 63 194h-50c-7-57 23-157-34-157-59 0-34 97-39 157H25l-1-190h47c2 12-1 28 3 38 12-26 28-41 61-42" id="W"/><path fill="#333" d="M137-138c1-29-70-34-71-4 15 46 118 7 119 86 1 83-164 76-172 9l43-7c4 19 20 25 44 25 33 8 57-30 24-41C81-84 22-81 20-136c-2-80 154-74 161-7" id="X"/><path fill="#333" d="M25 0v-261h50V0H25" id="Y"/><path fill="#333" d="M185-48c-13 30-37 53-82 52C43 2 14-33 14-96s30-98 90-98c62 0 83 45 84 108H66c0 31 8 55 39 56 18 0 30-7 34-22zm-45-69c5-46-57-63-70-21-2 6-4 13-4 21h74" id="Z"/><g id="a"><use transform="matrix(0.07407407407407404,0,0,0.07407407407407404,0,0)" xlink:href="#U"/><use transform="matrix(0.07407407407407404,0,0,0.07407407407407404,19.185185185185176,0)" xlink:href="#V"/><use transform="matrix(0.07407407407407404,0,0,0.07407407407407404,35.40740740740739,0)" xlink:href="#W"/><use transform="matrix(0.07407407407407404,0,0,0.07407407407407404,51.629629629629605,0)" xlink:href="#X"/><use transform="matrix(0.07407407407407404,0,0,0.07407407407407404,66.44444444444441,0)" xlink:href="#V"/><use transform="matrix(0.07407407407407404,0,0,0.07407407407407404,82.66666666666663,0)" xlink:href="#Y"/><use transform="matrix(0.07407407407407404,0,0,0.07407407407407404,90.07407407407403,0)" xlink:href="#Z"/></g><path fill="#333" d="M24-231v-30h32v30H24zM24 0v-190h32V0H24" id="aa"/><path fill="#333" d="M117-194c89-4 53 116 60 194h-32v-121c0-31-8-49-39-48C34-167 62-67 57 0H25l-1-190h30c1 10-1 24 2 32 11-22 29-35 61-36" id="ab"/><path fill="#333" d="M135-143c-3-34-86-38-87 0 15 53 115 12 119 90S17 21 10-45l28-5c4 36 97 45 98 0-10-56-113-15-118-90-4-57 82-63 122-42 12 7 21 19 24 35" id="ac"/><path fill="#333" d="M59-47c-2 24 18 29 38 22v24C64 9 27 4 27-40v-127H5v-23h24l9-43h21v43h35v23H59v120" id="ad"/><path fill="#333" d="M114-163C36-179 61-72 57 0H25l-1-190h30c1 12-1 29 2 39 6-27 23-49 58-41v29" id="ae"/><path fill="#333" d="M84 4C-5 8 30-112 23-190h32v120c0 31 7 50 39 49 72-2 45-101 50-169h31l1 190h-30c-1-10 1-25-2-33-11 22-28 36-60 37" id="af"/><path fill="#333" d="M96-169c-40 0-48 33-48 73s9 75 48 75c24 0 41-14 43-38l32 2c-6 37-31 61-74 61-59 0-76-41-82-99-10-93 101-131 147-64 4 7 5 14 7 22l-32 3c-4-21-16-35-41-35" id="ag"/><path fill="#333" d="M100-194c62-1 85 37 85 99 1 63-27 99-86 99S16-35 15-95c0-66 28-99 85-99zM99-20c44 1 53-31 53-75 0-43-8-75-51-75s-53 32-53 75 10 74 51 75" id="ah"/><g id="b"><use transform="matrix(0.07407407407407404,0,0,0.07407407407407404,0,0)" xlink:href="#aa"/><use transform="matrix(0.07407407407407404,0,0,0.07407407407407404,5.851851851851849,0)" xlink:href="#ab"/><use transform="matrix(0.07407407407407404,0,0,0.07407407407407404,20.666666666666657,0)" xlink:href="#ac"/><use transform="matrix(0.07407407407407404,0,0,0.07407407407407404,33.999999999999986,0)" xlink:href="#ad"/><use transform="matrix(0.07407407407407404,0,0,0.07407407407407404,41.40740740740739,0)" xlink:href="#ae"/><use transform="matrix(0.07407407407407404,0,0,0.07407407407407404,50.2222222222222,0)" xlink:href="#af"/><use transform="matrix(0.07407407407407404,0,0,0.07407407407407404,65.03703703703701,0)" xlink:href="#ag"/><use transform="matrix(0.07407407407407404,0,0,0.07407407407407404,78.37037037037034,0)" xlink:href="#ad"/><use transform="matrix(0.07407407407407404,0,0,0.07407407407407404,85.77777777777774,0)" xlink:href="#aa"/><use transform="matrix(0.07407407407407404,0,0,0.07407407407407404,91.62962962962959,0)" xlink:href="#ah"/><use transform="matrix(0.07407407407407404,0,0,0.07407407407407404,106.4444444444444,0)" xlink:href="#ab"/><use transform="matrix(0.07407407407407404,0,0,0.07407407407407404,121.25925925925921,0)" xlink:href="#ac"/></g><path fill="#333" d="M100-194c63 0 86 42 84 106H49c0 40 14 67 53 68 26 1 43-12 49-29l28 8c-11 28-37 45-77 45C44 4 14-33 15-96c1-61 26-98 85-98zm52 81c6-60-76-77-97-28-3 7-6 17-6 28h103" id="ai"/><g id="c"><use transform="matrix(0.07407407407407404,0,0,0.07407407407407404,0,0)" xlink:href="#ag"/><use transform="matrix(0.07407407407407404,0,0,0.07407407407407404,13.333333333333327,0)" xlink:href="#ah"/><use transform="matrix(0.07407407407407404,0,0,0.07407407407407404,28.148148148148135,0)" xlink:href="#ab"/><use transform="matrix(0.07407407407407404,0,0,0.07407407407407404,42.96296296296295,0)" xlink:href="#ai"/><use transform="matrix(0.07407407407407404,0,0,0.07407407407407404,57.77777777777775,0)" xlink:href="#ab"/><use transform="matrix(0.07407407407407404,0,0,0.07407407407407404,72.59259259259255,0)" xlink:href="#ag"/><use transform="matrix(0.07407407407407404,0,0,0.07407407407407404,85.9259259259259,0)" xlink:href="#ad"/><use transform="matrix(0.07407407407407404,0,0,0.07407407407407404,93.3333333333333,0)" xlink:href="#aa"/><use transform="matrix(0.07407407407407404,0,0,0.07407407407407404,99.18518518518512,0)" xlink:href="#ah"/><use transform="matrix(0.07407407407407404,0,0,0.07407407407407404,113.99999999999996,0)" xlink:href="#ab"/></g><path fill="#333" d="M115-194c55 1 70 41 70 98S169 2 115 4C84 4 66-9 55-30l1 105H24l-1-265h31l2 30c10-21 28-34 59-34zm-8 174c40 0 45-34 45-75s-6-73-45-74c-42 0-51 32-51 76 0 43 10 73 51 73" id="aj"/><path fill="#333" d="M141-36C126-15 110 5 73 4 37 3 15-17 15-53c-1-64 63-63 125-63 3-35-9-54-41-54-24 1-41 7-42 31l-33-3c5-37 33-52 76-52 45 0 72 20 72 64v82c-1 20 7 32 28 27v20c-31 9-61-2-59-35zM48-53c0 20 12 33 32 33 41-3 63-29 60-74-43 2-92-5-92 41" id="ak"/><g id="d"><use transform="matrix(0.07407407407407404,0,0,0.07407407407407404,0,0)" xlink:href="#aj"/><use transform="matrix(0.07407407407407404,0,0,0.07407407407407404,14.814814814814808,0)" xlink:href="#ak"/><use transform="matrix(0.07407407407407404,0,0,0.07407407407407404,29.629629629629616,0)" xlink:href="#ae"/><use transform="matrix(0.07407407407407404,0,0,0.07407407407407404,38.44444444444443,0)" xlink:href="#ac"/><use transform="matrix(0.07407407407407404,0,0,0.07407407407407404,51.77777777777776,0)" xlink:href="#ai"/><use transform="matrix(0.07407407407407404,0,0,0.07407407407407404,66.59259259259257,0)" xlink:href="#ae"/></g><path fill="#333" d="M87 75C49 33 22-17 22-94c0-76 28-126 65-167h31c-38 41-64 92-64 168S80 34 118 75H87" id="al"/><path fill="#333" d="M101-234c-31-9-42 10-38 44h38v23H63V0H32v-167H5v-23h27c-7-52 17-82 69-68v24" id="am"/><path fill="#333" d="M24 0v-261h32V0H24" id="an"/><path fill="#333" d="M30-248c87 1 191-15 191 75 0 78-77 80-158 76V0H30v-248zm33 125c57 0 124 11 124-50 0-59-68-47-124-48v98" id="ao"/><path fill="#333" d="M106-169C34-169 62-67 57 0H25v-261h32l-1 103c12-21 28-36 61-36 89 0 53 116 60 194h-32v-121c2-32-8-49-39-48" id="ap"/><path fill="#333" d="M33-261c38 41 65 92 65 168S71 34 33 75H2C39 34 66-17 66-93S39-220 2-261h31" id="aq"/><g id="e"><use transform="matrix(0.07407407407407404,0,0,0.07407407407407404,0,0)" xlink:href="#aj"/><use transform="matrix(0.07407407407407404,0,0,0.07407407407407404,14.814814814814808,0)" xlink:href="#ak"/><use transform="matrix(0.07407407407407404,0,0,0.07407407407407404,29.629629629629616,0)" xlink:href="#ae"/><use transform="matrix(0.07407407407407404,0,0,0.07407407407407404,38.44444444444443,0)" xlink:href="#ac"/><use transform="matrix(0.07407407407407404,0,0,0.07407407407407404,51.77777777777776,0)" xlink:href="#ai"/><use transform="matrix(0.07407407407407404,0,0,0.07407407407407404,66.59259259259257,0)" xlink:href="#al"/><use transform="matrix(0.07407407407407404,0,0,0.07407407407407404,75.40740740740738,0)" xlink:href="#am"/><use transform="matrix(0.07407407407407404,0,0,0.07407407407407404,82.81481481481478,0)" xlink:href="#aa"/><use transform="matrix(0.07407407407407404,0,0,0.07407407407407404,88.66666666666663,0)" xlink:href="#an"/><use transform="matrix(0.07407407407407404,0,0,0.07407407407407404,94.51851851851848,0)" xlink:href="#ai"/><use transform="matrix(0.07407407407407404,0,0,0.07407407407407404,109.33333333333329,0)" xlink:href="#ao"/><use transform="matrix(0.07407407407407404,0,0,0.07407407407407404,127.11111111111106,0)" xlink:href="#ak"/><use transform="matrix(0.07407407407407404,0,0,0.07407407407407404,141.92592592592587,0)" xlink:href="#ad"/><use transform="matrix(0.07407407407407404,0,0,0.07407407407407404,149.33333333333326,0)" xlink:href="#ap"/><use transform="matrix(0.07407407407407404,0,0,0.07407407407407404,164.14814814814807,0)" xlink:href="#aq"/></g><path fill="#333" d="M85-194c31 0 48 13 60 33l-1-100h32l1 261h-30c-2-10 0-23-3-31C134-8 116 4 85 4 32 4 16-35 15-94c0-66 23-100 70-100zm9 24c-40 0-46 34-46 75 0 40 6 74 45 74 42 0 51-32 51-76 0-42-9-74-50-73" id="ar"/><g id="f"><use transform="matrix(0.07407407407407404,0,0,0.07407407407407404,0,0)" xlink:href="#ac"/><use transform="matrix(0.07407407407407404,0,0,0.07407407407407404,13.333333333333327,0)" xlink:href="#ai"/><use transform="matrix(0.07407407407407404,0,0,0.07407407407407404,28.148148148148135,0)" xlink:href="#ab"/><use transform="matrix(0.07407407407407404,0,0,0.07407407407407404,42.96296296296295,0)" xlink:href="#ar"/><use transform="matrix(0.07407407407407404,0,0,0.07407407407407404,57.77777777777775,0)" xlink:href="#al"/><use transform="matrix(0.07407407407407404,0,0,0.07407407407407404,66.59259259259257,0)" xlink:href="#aq"/></g><path fill="#333" d="M190-63c-7 42-38 67-86 67-59 0-84-38-90-98-12-110 154-137 174-36l-49 2c-2-19-15-32-35-32-30 0-35 28-38 64-6 74 65 87 74 30" id="as"/><path fill="#333" d="M115-3C79 11 28 4 28-45v-112H4v-33h27l15-45h31v45h36v33H77v99c-1 23 16 31 38 25v30" id="at"/><path fill="#333" d="M25-224v-37h50v37H25zM25 0v-190h50V0H25" id="au"/><g id="g"><use transform="matrix(0.07407407407407404,0,0,0.07407407407407404,0,0)" xlink:href="#U"/><use transform="matrix(0.07407407407407404,0,0,0.07407407407407404,19.185185185185176,0)" xlink:href="#V"/><use transform="matrix(0.07407407407407404,0,0,0.07407407407407404,35.40740740740739,0)" xlink:href="#W"/><use transform="matrix(0.07407407407407404,0,0,0.07407407407407404,51.629629629629605,0)" xlink:href="#W"/><use transform="matrix(0.07407407407407404,0,0,0.07407407407407404,67.85185185185182,0)" xlink:href="#Z"/><use transform="matrix(0.07407407407407404,0,0,0.07407407407407404,82.66666666666663,0)" xlink:href="#as"/><use transform="matrix(0.07407407407407404,0,0,0.07407407407407404,97.48148148148144,0)" xlink:href="#at"/><use transform="matrix(0.07407407407407404,0,0,0.07407407407407404,106.29629629629625,0)" xlink:href="#au"/><use transform="matrix(0.07407407407407404,0,0,0.07407407407407404,113.70370370370365,0)" xlink:href="#V"/><use transform="matrix(0.07407407407407404,0,0,0.07407407407407404,129.92592592592587,0)" xlink:href="#W"/></g><path fill="#333" d="M-5 72V49h209v23H-5" id="av"/><g id="h"><use transform="matrix(0.07407407407407404,0,0,0.07407407407407404,0,0)" xlink:href="#av"/><use transform="matrix(0.07407407407407404,0,0,0.07407407407407404,14.814814814814808,0)" xlink:href="#ak"/><use transform="matrix(0.07407407407407404,0,0,0.07407407407407404,29.629629629629616,0)" xlink:href="#ar"/><use transform="matrix(0.07407407407407404,0,0,0.07407407407407404,44.44444444444443,0)" xlink:href="#ar"/><use transform="matrix(0.07407407407407404,0,0,0.07407407407407404,59.25925925925923,0)" xlink:href="#ae"/><use transform="matrix(0.07407407407407404,0,0,0.07407407407407404,68.07407407407405,0)" xlink:href="#aa"/><use transform="matrix(0.07407407407407404,0,0,0.07407407407407404,73.9259259259259,0)" xlink:href="#ab"/><use transform="matrix(0.07407407407407404,0,0,0.07407407407407404,88.7407407407407,0)" xlink:href="#am"/><use transform="matrix(0.07407407407407404,0,0,0.07407407407407404,96.14814814814811,0)" xlink:href="#ah"/></g><path fill="#333" d="M143 0L79-87 56-68V0H24v-261h32v163l83-92h37l-77 82L181 0h-38" id="aw"/><g id="i"><use transform="matrix(0.07407407407407404,0,0,0.07407407407407404,0,0)" xlink:href="#av"/><use transform="matrix(0.07407407407407404,0,0,0.07407407407407404,14.814814814814808,0)" xlink:href="#ac"/><use transform="matrix(0.07407407407407404,0,0,0.07407407407407404,28.148148148148135,0)" xlink:href="#ah"/><use transform="matrix(0.07407407407407404,0,0,0.07407407407407404,42.96296296296295,0)" xlink:href="#ag"/><use transform="matrix(0.07407407407407404,0,0,0.07407407407407404,56.29629629629627,0)" xlink:href="#aw"/><use transform="matrix(0.07407407407407404,0,0,0.07407407407407404,69.62962962962959,0)" xlink:href="#ai"/><use transform="matrix(0.07407407407407404,0,0,0.07407407407407404,84.44444444444441,0)" xlink:href="#ad"/></g><path fill="#333" d="M210-169c-67 3-38 105-44 169h-31v-121c0-29-5-50-35-48C34-165 62-65 56 0H25l-1-190h30c1 10-1 24 2 32 10-44 99-50 107 0 11-21 27-35 58-36 85-2 47 119 55 194h-31v-121c0-29-5-49-35-48" id="ax"/><path fill="#333" d="M141 0L90-78 38 0H4l68-98-65-92h35l48 74 47-74h35l-64 92 68 98h-35" id="ay"/><path fill="#333" d="M68-38c1 34 0 65-14 84H32c9-13 17-26 17-46H33v-38h35" id="az"/><g id="j"><use transform="matrix(0.07407407407407404,0,0,0.07407407407407404,0,0)" xlink:href="#ac"/><use transform="matrix(0.07407407407407404,0,0,0.07407407407407404,13.333333333333327,0)" xlink:href="#ai"/><use transform="matrix(0.07407407407407404,0,0,0.07407407407407404,28.148148148148135,0)" xlink:href="#ab"/><use transform="matrix(0.07407407407407404,0,0,0.07407407407407404,42.96296296296295,0)" xlink:href="#ar"/><use transform="matrix(0.07407407407407404,0,0,0.07407407407407404,57.77777777777775,0)" xlink:href="#av"/><use transform="matrix(0.07407407407407404,0,0,0.07407407407407404,72.59259259259255,0)" xlink:href="#ac"/><use transform="matrix(0.07407407407407404,0,0,0.07407407407407404,85.9259259259259,0)" xlink:href="#ad"/><use transform="matrix(0.07407407407407404,0,0,0.07407407407407404,93.3333333333333,0)" xlink:href="#ae"/><use transform="matrix(0.07407407407407404,0,0,0.07407407407407404,102.14814814814808,0)" xlink:href="#ai"/><use transform="matrix(0.07407407407407404,0,0,0.07407407407407404,116.96296296296292,0)" xlink:href="#ak"/><use transform="matrix(0.07407407407407404,0,0,0.07407407407407404,131.77777777777771,0)" xlink:href="#ax"/><use transform="matrix(0.07407407407407404,0,0,0.07407407407407404,153.92592592592587,0)" xlink:href="#al"/><use transform="matrix(0.07407407407407404,0,0,0.07407407407407404,162.74074074074068,0)" xlink:href="#ag"/><use transform="matrix(0.07407407407407404,0,0,0.07407407407407404,176.074074074074,0)" xlink:href="#ah"/><use transform="matrix(0.07407407407407404,0,0,0.07407407407407404,190.8888888888888,0)" xlink:href="#ab"/><use transform="matrix(0.07407407407407404,0,0,0.07407407407407404,205.7037037037036,0)" xlink:href="#ai"/><use transform="matrix(0.07407407407407404,0,0,0.07407407407407404,220.51851851851842,0)" xlink:href="#ay"/><use transform="matrix(0.07407407407407404,0,0,0.07407407407407404,233.8518518518517,0)" xlink:href="#aa"/><use transform="matrix(0.07407407407407404,0,0,0.07407407407407404,239.70370370370355,0)" xlink:href="#ah"/><use transform="matrix(0.07407407407407404,0,0,0.07407407407407404,254.51851851851836,0)" xlink:href="#ab"/><use transform="matrix(0.07407407407407404,0,0,0.07407407407407404,269.3333333333332,0)" xlink:href="#az"/></g><g id="k"><use transform="matrix(0.07407407407407404,0,0,0.07407407407407404,0,0)" xlink:href="#ah"/><use transform="matrix(0.07407407407407404,0,0,0.07407407407407404,14.814814814814808,0)" xlink:href="#aj"/><use transform="matrix(0.07407407407407404,0,0,0.07407407407407404,29.629629629629616,0)" xlink:href="#ag"/><use transform="matrix(0.07407407407407404,0,0,0.07407407407407404,42.96296296296295,0)" xlink:href="#ah"/><use transform="matrix(0.07407407407407404,0,0,0.07407407407407404,57.77777777777775,0)" xlink:href="#ar"/><use transform="matrix(0.07407407407407404,0,0,0.07407407407407404,72.59259259259255,0)" xlink:href="#ai"/><use transform="matrix(0.07407407407407404,0,0,0.07407407407407404,87.40740740740738,0)" xlink:href="#az"/></g><g id="l"><use transform="matrix(0.07407407407407404,0,0,0.07407407407407404,0,0)" xlink:href="#ac"/><use transform="matrix(0.07407407407407404,0,0,0.07407407407407404,13.333333333333327,0)" xlink:href="#ad"/><use transform="matrix(0.07407407407407404,0,0,0.07407407407407404,20.740740740740733,0)" xlink:href="#ae"/><use transform="matrix(0.07407407407407404,0,0,0.07407407407407404,29.555555555555543,0)" xlink:href="#ai"/><use transform="matrix(0.07407407407407404,0,0,0.07407407407407404,44.37037037037035,0)" xlink:href="#ak"/><use transform="matrix(0.07407407407407404,0,0,0.07407407407407404,59.18518518518516,0)" xlink:href="#ax"/><use transform="matrix(0.07407407407407404,0,0,0.07407407407407404,81.3333333333333,0)" xlink:href="#az"/></g><path fill="#333" d="M9 0v-24l116-142H16v-24h144v24L44-24h123V0H9" id="aA"/><g id="m"><use transform="matrix(0.07407407407407404,0,0,0.07407407407407404,0,0)" xlink:href="#ac"/><use transform="matrix(0.07407407407407404,0,0,0.07407407407407404,13.333333333333327,0)" xlink:href="#aa"/><use transform="matrix(0.07407407407407404,0,0,0.07407407407407404,19.185185185185176,0)" xlink:href="#aA"/><use transform="matrix(0.07407407407407404,0,0,0.07407407407407404,32.518518518518505,0)" xlink:href="#ai"/><use transform="matrix(0.07407407407407404,0,0,0.07407407407407404,47.333333333333314,0)" xlink:href="#aq"/></g><path fill="#333" d="M15-91v-56l181-69v40L49-119l147 57v40" id="aB"/><g id="n"><use transform="matrix(0.04938271604938272,0,0,0.04938271604938272,0,0)" xlink:href="#aB"/><use transform="matrix(0.04938271604938272,0,0,0.04938271604938272,10.370370370370372,0)" xlink:href="#as"/><use transform="matrix(0.04938271604938272,0,0,0.04938271604938272,20.24691358024692,0)" xlink:href="#V"/><use transform="matrix(0.04938271604938272,0,0,0.04938271604938272,31.061728395061735,0)" xlink:href="#W"/><use transform="matrix(0.04938271604938272,0,0,0.04938271604938272,41.87654320987655,0)" xlink:href="#W"/><use transform="matrix(0.04938271604938272,0,0,0.04938271604938272,52.691358024691375,0)" xlink:href="#Z"/><use transform="matrix(0.04938271604938272,0,0,0.04938271604938272,62.56790123456792,0)" xlink:href="#as"/><use transform="matrix(0.04938271604938272,0,0,0.04938271604938272,72.44444444444446,0)" xlink:href="#at"/><use transform="matrix(0.04938271604938272,0,0,0.04938271604938272,78.320987654321,0)" xlink:href="#X"/></g><path fill="#333" d="M128 0H69L1-190h53L99-40l48-150h52" id="aC"/><path fill="#333" d="M133-34C117-15 103 5 69 4 32 3 11-16 11-54c-1-60 55-63 116-61 1-26-3-47-28-47-18 1-26 9-28 27l-52-2c7-38 36-58 82-57s74 22 75 68l1 82c-1 14 12 18 25 15v27c-30 8-71 5-69-32zm-48 3c29 0 43-24 42-57-32 0-66-3-65 30 0 17 8 27 23 27" id="aD"/><path fill="#333" d="M15-22v-40l146-57-146-57v-40l181 69v56" id="aE"/><g id="o"><use transform="matrix(0.04938271604938272,0,0,0.04938271604938272,0,0)" xlink:href="#aC"/><use transform="matrix(0.04938271604938272,0,0,0.04938271604938272,9.876543209876544,0)" xlink:href="#au"/><use transform="matrix(0.04938271604938272,0,0,0.04938271604938272,14.814814814814817,0)" xlink:href="#aD"/><use transform="matrix(0.04938271604938272,0,0,0.04938271604938272,24.69135802469136,0)" xlink:href="#aE"/></g><path fill="#333" d="M24-248c93 1 206-16 204 79-1 75-69 88-152 82V0H24v-248zm52 121c47 0 100 7 100-41 0-47-54-39-100-39v80" id="aF"/><path fill="#333" d="M135-150c-39-12-60 13-60 57V0H25l-1-190h47c2 13-1 29 3 40 6-28 27-53 61-41v41" id="aG"/><g id="p"><use transform="matrix(0.07407407407407404,0,0,0.07407407407407404,0,0)" xlink:href="#aF"/><use transform="matrix(0.07407407407407404,0,0,0.07407407407407404,17.77777777777777,0)" xlink:href="#aD"/><use transform="matrix(0.07407407407407404,0,0,0.07407407407407404,32.59259259259258,0)" xlink:href="#aG"/><use transform="matrix(0.07407407407407404,0,0,0.07407407407407404,42.96296296296295,0)" xlink:href="#X"/><use transform="matrix(0.07407407407407404,0,0,0.07407407407407404,57.777777777777764,0)" xlink:href="#Z"/><use transform="matrix(0.07407407407407404,0,0,0.07407407407407404,72.59259259259257,0)" xlink:href="#aG"/></g><g id="q"><use transform="matrix(0.07407407407407404,0,0,0.07407407407407404,0,0)" xlink:href="#an"/><use transform="matrix(0.07407407407407404,0,0,0.07407407407407404,5.851851851851849,0)" xlink:href="#ai"/><use transform="matrix(0.07407407407407404,0,0,0.07407407407407404,20.666666666666657,0)" xlink:href="#ay"/><use transform="matrix(0.07407407407407404,0,0,0.07407407407407404,33.999999999999986,0)" xlink:href="#ai"/><use transform="matrix(0.07407407407407404,0,0,0.07407407407407404,48.814814814814795,0)" xlink:href="#ae"/></g><path fill="#333" d="M33 0v-248h34V0H33" id="aH"/><g id="r"><use transform="matrix(0.07407407407407404,0,0,0.07407407407407404,0,0)" xlink:href="#ac"/><use transform="matrix(0.07407407407407404,0,0,0.07407407407407404,13.333333333333327,0)" xlink:href="#ai"/><use transform="matrix(0.07407407407407404,0,0,0.07407407407407404,28.148148148148135,0)" xlink:href="#ax"/><use transform="matrix(0.07407407407407404,0,0,0.07407407407407404,50.296296296296276,0)" xlink:href="#ak"/><use transform="matrix(0.07407407407407404,0,0,0.07407407407407404,65.11111111111109,0)" xlink:href="#ab"/><use transform="matrix(0.07407407407407404,0,0,0.07407407407407404,79.9259259259259,0)" xlink:href="#ad"/><use transform="matrix(0.07407407407407404,0,0,0.07407407407407404,87.3333333333333,0)" xlink:href="#aa"/><use transform="matrix(0.07407407407407404,0,0,0.07407407407407404,93.18518518518515,0)" xlink:href="#ag"/><use transform="matrix(0.07407407407407404,0,0,0.07407407407407404,106.51851851851848,0)" xlink:href="#aH"/><use transform="matrix(0.07407407407407404,0,0,0.07407407407407404,113.92592592592588,0)" xlink:href="#ab"/><use transform="matrix(0.07407407407407404,0,0,0.07407407407407404,128.74074074074068,0)" xlink:href="#ad"/><use transform="matrix(0.07407407407407404,0,0,0.07407407407407404,136.14814814814807,0)" xlink:href="#ai"/><use transform="matrix(0.07407407407407404,0,0,0.07407407407407404,150.96296296296288,0)" xlink:href="#ae"/><use transform="matrix(0.07407407407407404,0,0,0.07407407407407404,159.7777777777777,0)" xlink:href="#aj"/><use transform="matrix(0.07407407407407404,0,0,0.07407407407407404,174.5925925925925,0)" xlink:href="#ae"/><use transform="matrix(0.07407407407407404,0,0,0.07407407407407404,183.4074074074073,0)" xlink:href="#ai"/><use transform="matrix(0.07407407407407404,0,0,0.07407407407407404,198.22222222222211,0)" xlink:href="#ad"/><use transform="matrix(0.07407407407407404,0,0,0.07407407407407404,205.6296296296295,0)" xlink:href="#ai"/><use transform="matrix(0.07407407407407404,0,0,0.07407407407407404,220.44444444444431,0)" xlink:href="#ae"/></g><path fill="#333" d="M179-190L93 31C79 59 56 82 12 73V49c39 6 53-20 64-50L1-190h34L92-34l54-156h33" id="aI"/><g id="s"><use transform="matrix(0.07407407407407404,0,0,0.07407407407407404,0,0)" xlink:href="#aI"/><use transform="matrix(0.07407407407407404,0,0,0.07407407407407404,13.333333333333327,0)" xlink:href="#aI"/><use transform="matrix(0.07407407407407404,0,0,0.07407407407407404,26.666666666666654,0)" xlink:href="#aj"/><use transform="matrix(0.07407407407407404,0,0,0.07407407407407404,41.48148148148147,0)" xlink:href="#ak"/><use transform="matrix(0.07407407407407404,0,0,0.07407407407407404,56.29629629629627,0)" xlink:href="#ae"/><use transform="matrix(0.07407407407407404,0,0,0.07407407407407404,65.11111111111109,0)" xlink:href="#ac"/><use transform="matrix(0.07407407407407404,0,0,0.07407407407407404,78.44444444444441,0)" xlink:href="#ai"/><use transform="matrix(0.07407407407407404,0,0,0.07407407407407404,93.25925925925922,0)" xlink:href="#al"/><use transform="matrix(0.07407407407407404,0,0,0.07407407407407404,102.07407407407403,0)" xlink:href="#aq"/></g><path fill="#333" d="M85 4C-2 5 27-109 22-190h50c7 57-23 150 33 157 60-5 35-97 40-157h50l1 190h-47c-2-12 1-28-3-38-12 25-28 42-61 42" id="aJ"/><g id="t"><use transform="matrix(0.04938271604938272,0,0,0.04938271604938272,0,0)" xlink:href="#aB"/><use transform="matrix(0.04938271604938272,0,0,0.04938271604938272,10.370370370370372,0)" xlink:href="#aJ"/><use transform="matrix(0.04938271604938272,0,0,0.04938271604938272,21.185185185185187,0)" xlink:href="#X"/><use transform="matrix(0.04938271604938272,0,0,0.04938271604938272,31.06172839506173,0)" xlink:href="#Z"/><use transform="matrix(0.04938271604938272,0,0,0.04938271604938272,40.93827160493828,0)" xlink:href="#X"/><use transform="matrix(0.04938271604938272,0,0,0.04938271604938272,50.81481481481482,0)" xlink:href="#aE"/></g><path fill="#333" d="M24 0v-248h52v208h133V0H24" id="aK"/><path fill="#333" d="M144 0l-44-69L55 0H2l70-98-66-92h53l41 62 40-62h54l-67 91 71 99h-54" id="aL"/><g id="u"><use transform="matrix(0.07407407407407404,0,0,0.07407407407407404,0,0)" xlink:href="#aK"/><use transform="matrix(0.07407407407407404,0,0,0.07407407407407404,16.222222222222214,0)" xlink:href="#Z"/><use transform="matrix(0.07407407407407404,0,0,0.07407407407407404,31.037037037037024,0)" xlink:href="#aL"/><use transform="matrix(0.07407407407407404,0,0,0.07407407407407404,45.85185185185183,0)" xlink:href="#Z"/><use transform="matrix(0.07407407407407404,0,0,0.07407407407407404,60.66666666666664,0)" xlink:href="#aG"/></g><g id="v"><use transform="matrix(0.07407407407407404,0,0,0.07407407407407404,0,0)" xlink:href="#ad"/><use transform="matrix(0.07407407407407404,0,0,0.07407407407407404,7.407407407407404,0)" xlink:href="#ah"/><use transform="matrix(0.07407407407407404,0,0,0.07407407407407404,22.222222222222214,0)" xlink:href="#aw"/><use transform="matrix(0.07407407407407404,0,0,0.07407407407407404,35.555555555555536,0)" xlink:href="#ai"/><use transform="matrix(0.07407407407407404,0,0,0.07407407407407404,50.370370370370345,0)" xlink:href="#ab"/><use transform="matrix(0.07407407407407404,0,0,0.07407407407407404,65.18518518518515,0)" xlink:href="#ac"/></g><g id="w"><use transform="matrix(0.07407407407407404,0,0,0.07407407407407404,0,0)" xlink:href="#aI"/><use transform="matrix(0.07407407407407404,0,0,0.07407407407407404,13.333333333333327,0)" xlink:href="#aI"/><use transform="matrix(0.07407407407407404,0,0,0.07407407407407404,26.666666666666654,0)" xlink:href="#an"/><use transform="matrix(0.07407407407407404,0,0,0.07407407407407404,32.518518518518505,0)" xlink:href="#ai"/><use transform="matrix(0.07407407407407404,0,0,0.07407407407407404,47.333333333333314,0)" xlink:href="#ay"/><use transform="matrix(0.07407407407407404,0,0,0.07407407407407404,60.66666666666664,0)" xlink:href="#al"/><use transform="matrix(0.07407407407407404,0,0,0.07407407407407404,69.48148148148145,0)" xlink:href="#aq"/></g><path fill="#333" d="M121-226c-27-7-43 5-38 36h38v33H83V0H34v-157H6v-33h28c-9-59 32-81 87-68v32" id="aM"/><g id="x"><use transform="matrix(0.04938271604938272,0,0,0.04938271604938272,0,0)" xlink:href="#aB"/><use transform="matrix(0.04938271604938272,0,0,0.04938271604938272,10.370370370370372,0)" xlink:href="#aC"/><use transform="matrix(0.04938271604938272,0,0,0.04938271604938272,20.24691358024692,0)" xlink:href="#Z"/><use transform="matrix(0.04938271604938272,0,0,0.04938271604938272,30.123456790123466,0)" xlink:href="#aG"/><use transform="matrix(0.04938271604938272,0,0,0.04938271604938272,37.037037037037045,0)" xlink:href="#au"/><use transform="matrix(0.04938271604938272,0,0,0.04938271604938272,41.97530864197532,0)" xlink:href="#aM"/><use transform="matrix(0.04938271604938272,0,0,0.04938271604938272,47.85185185185186,0)" xlink:href="#au"/><use transform="matrix(0.04938271604938272,0,0,0.04938271604938272,52.79012345679014,0)" xlink:href="#Z"/><use transform="matrix(0.04938271604938272,0,0,0.04938271604938272,62.666666666666686,0)" xlink:href="#X"/></g><path fill="#333" d="M220-157c-53 9-28 100-34 157h-49v-107c1-27-5-49-29-50C55-147 81-57 75 0H25l-1-190h47c2 12-1 28 3 38 10-53 101-56 108 0 13-22 24-43 59-42 82 1 51 116 57 194h-49v-107c-1-25-5-48-29-50" id="aN"/><g id="y"><use transform="matrix(0.04938271604938272,0,0,0.04938271604938272,0,0)" xlink:href="#Y"/><use transform="matrix(0.04938271604938272,0,0,0.04938271604938272,4.938271604938272,0)" xlink:href="#Z"/><use transform="matrix(0.04938271604938272,0,0,0.04938271604938272,14.814814814814817,0)" xlink:href="#aL"/><use transform="matrix(0.04938271604938272,0,0,0.04938271604938272,24.69135802469136,0)" xlink:href="#Z"/><use transform="matrix(0.04938271604938272,0,0,0.04938271604938272,34.567901234567906,0)" xlink:href="#aN"/><use transform="matrix(0.04938271604938272,0,0,0.04938271604938272,50.370370370370374,0)" xlink:href="#X"/><use transform="matrix(0.04938271604938272,0,0,0.04938271604938272,60.24691358024692,0)" xlink:href="#aE"/></g><path fill="#333" d="M135-194c53 0 70 44 70 98 0 56-19 98-73 100-31 1-45-17-59-34 3 33 2 69 2 105H25l-1-265h48c2 10 0 23 3 31 11-24 29-35 60-35zM114-30c33 0 39-31 40-66 0-38-9-64-40-64-56 0-55 130 0 130" id="aO"/><g id="z"><use transform="matrix(0.04938271604938272,0,0,0.04938271604938272,0,0)" xlink:href="#aB"/><use transform="matrix(0.04938271604938272,0,0,0.04938271604938272,10.370370370370372,0)" xlink:href="#aN"/><use transform="matrix(0.04938271604938272,0,0,0.04938271604938272,26.172839506172842,0)" xlink:href="#aD"/><use transform="matrix(0.04938271604938272,0,0,0.04938271604938272,36.04938271604939,0)" xlink:href="#aO"/><use transform="matrix(0.04938271604938272,0,0,0.04938271604938272,46.8641975308642,0)" xlink:href="#X"/></g><g id="A"><use transform="matrix(0.04938271604938272,0,0,0.04938271604938272,0,0)" xlink:href="#X"/><use transform="matrix(0.04938271604938272,0,0,0.04938271604938272,9.876543209876544,0)" xlink:href="#Z"/><use transform="matrix(0.04938271604938272,0,0,0.04938271604938272,19.75308641975309,0)" xlink:href="#aN"/><use transform="matrix(0.04938271604938272,0,0,0.04938271604938272,35.55555555555556,0)" xlink:href="#aD"/><use transform="matrix(0.04938271604938272,0,0,0.04938271604938272,45.4320987654321,0)" xlink:href="#W"/><use transform="matrix(0.04938271604938272,0,0,0.04938271604938272,56.24691358024692,0)" xlink:href="#at"/><use transform="matrix(0.04938271604938272,0,0,0.04938271604938272,62.12345679012346,0)" xlink:href="#au"/><use transform="matrix(0.04938271604938272,0,0,0.04938271604938272,67.06172839506173,0)" xlink:href="#as"/></g><g id="B"><use transform="matrix(0.04938271604938272,0,0,0.04938271604938272,0,0)" xlink:href="#aC"/><use transform="matrix(0.04938271604938272,0,0,0.04938271604938272,9.876543209876544,0)" xlink:href="#aD"/><use transform="matrix(0.04938271604938272,0,0,0.04938271604938272,19.75308641975309,0)" xlink:href="#Y"/><use transform="matrix(0.04938271604938272,0,0,0.04938271604938272,24.69135802469136,0)" xlink:href="#aJ"/><use transform="matrix(0.04938271604938272,0,0,0.04938271604938272,35.50617283950618,0)" xlink:href="#Z"/><use transform="matrix(0.04938271604938272,0,0,0.04938271604938272,45.38271604938272,0)" xlink:href="#aE"/></g><path d="M15-91v-56l181-69v40L49-119l147 57v40" id="aP"/><path d="M24 0v-248h52V0H24" id="aQ"/><path d="M135-194c87-1 58 113 63 194h-50c-7-57 23-157-34-157-59 0-34 97-39 157H25l-1-190h47c2 12-1 28 3 38 12-26 28-41 61-42" id="aR"/><path d="M115-3C79 11 28 4 28-45v-112H4v-33h27l15-45h31v45h36v33H77v99c-1 23 16 31 38 25v30" id="aS"/><path d="M185-48c-13 30-37 53-82 52C43 2 14-33 14-96s30-98 90-98c62 0 83 45 84 108H66c0 31 8 55 39 56 18 0 30-7 34-22zm-45-69c5-46-57-63-70-21-2 6-4 13-4 21h74" id="aT"/><path d="M135-150c-39-12-60 13-60 57V0H25l-1-190h47c2 13-1 29 3 40 6-28 27-53 61-41v41" id="aU"/><path d="M121-226c-27-7-43 5-38 36h38v33H83V0H34v-157H6v-33h28c-9-59 32-81 87-68v32" id="aV"/><path d="M133-34C117-15 103 5 69 4 32 3 11-16 11-54c-1-60 55-63 116-61 1-26-3-47-28-47-18 1-26 9-28 27l-52-2c7-38 36-58 82-57s74 22 75 68l1 82c-1 14 12 18 25 15v27c-30 8-71 5-69-32zm-48 3c29 0 43-24 42-57-32 0-66-3-65 30 0 17 8 27 23 27" id="aW"/><path d="M12 0v-35l95-120H19v-35h142v35L67-36h103V0H12" id="aX"/><path d="M15-22v-40l146-57-146-57v-40l181 69v56" id="aY"/><g id="C"><use transform="matrix(0.05,0,0,0.05,0,0)" xlink:href="#aP"/><use transform="matrix(0.05,0,0,0.05,10.5,0)" xlink:href="#aP"/><use transform="matrix(0.05,0,0,0.05,21,0)" xlink:href="#aQ"/><use transform="matrix(0.05,0,0,0.05,26,0)" xlink:href="#aR"/><use transform="matrix(0.05,0,0,0.05,36.95,0)" xlink:href="#aS"/><use transform="matrix(0.05,0,0,0.05,42.900000000000006,0)" xlink:href="#aT"/><use transform="matrix(0.05,0,0,0.05,52.900000000000006,0)" xlink:href="#aU"/><use transform="matrix(0.05,0,0,0.05,59.900000000000006,0)" xlink:href="#aV"/><use transform="matrix(0.05,0,0,0.05,65.85000000000001,0)" xlink:href="#aW"/><use transform="matrix(0.05,0,0,0.05,75.85000000000001,0)" xlink:href="#aX"/><use transform="matrix(0.05,0,0,0.05,84.85000000000001,0)" xlink:href="#aY"/><use transform="matrix(0.05,0,0,0.05,95.35000000000001,0)" xlink:href="#aY"/></g><path fill="#333" d="M169-182c-1-43-94-46-97-3 18 66 151 10 154 114 3 95-165 93-204 36-6-8-10-19-12-30l50-8c3 46 112 56 116 5-17-69-150-10-154-114-4-87 153-88 188-35 5 8 8 18 10 28" id="aZ"/><path fill="#333" d="M24 0v-248h52V0H24" id="ba"/><g id="D"><use transform="matrix(0.07407407407407404,0,0,0.07407407407407404,0,0)" xlink:href="#aZ"/><use transform="matrix(0.07407407407407404,0,0,0.07407407407407404,17.77777777777777,0)" xlink:href="#Z"/><use transform="matrix(0.07407407407407404,0,0,0.07407407407407404,32.59259259259258,0)" xlink:href="#aN"/><use transform="matrix(0.07407407407407404,0,0,0.07407407407407404,56.29629629629628,0)" xlink:href="#aD"/><use transform="matrix(0.07407407407407404,0,0,0.07407407407407404,71.11111111111109,0)" xlink:href="#W"/><use transform="matrix(0.07407407407407404,0,0,0.07407407407407404,87.3333333333333,0)" xlink:href="#at"/><use transform="matrix(0.07407407407407404,0,0,0.07407407407407404,96.14814814814811,0)" xlink:href="#au"/><use transform="matrix(0.07407407407407404,0,0,0.07407407407407404,103.55555555555551,0)" xlink:href="#as"/><use transform="matrix(0.07407407407407404,0,0,0.07407407407407404,118.37037037037032,0)" xlink:href="#ba"/><use transform="matrix(0.07407407407407404,0,0,0.07407407407407404,125.77777777777773,0)" xlink:href="#W"/><use transform="matrix(0.07407407407407404,0,0,0.07407407407407404,141.99999999999994,0)" xlink:href="#at"/><use transform="matrix(0.07407407407407404,0,0,0.07407407407407404,150.81481481481475,0)" xlink:href="#Z"/><use transform="matrix(0.07407407407407404,0,0,0.07407407407407404,165.62962962962956,0)" xlink:href="#aG"/><use transform="matrix(0.07407407407407404,0,0,0.07407407407407404,175.99999999999997,0)" xlink:href="#aO"/><use transform="matrix(0.07407407407407404,0,0,0.07407407407407404,192.22222222222217,0)" xlink:href="#aG"/><use transform="matrix(0.07407407407407404,0,0,0.07407407407407404,202.59259259259255,0)" xlink:href="#Z"/><use transform="matrix(0.07407407407407404,0,0,0.07407407407407404,217.40740740740733,0)" xlink:href="#at"/><use transform="matrix(0.07407407407407404,0,0,0.07407407407407404,226.22222222222217,0)" xlink:href="#Z"/><use transform="matrix(0.07407407407407404,0,0,0.07407407407407404,241.03703703703695,0)" xlink:href="#aG"/></g><path fill="#333" d="M145-31C134-9 116 4 85 4 32 4 16-35 15-94c0-59 17-99 70-100 32-1 48 14 60 33 0-11-1-24 2-32h30l-1 268h-32zM93-21c41 0 51-33 51-76s-8-73-50-73c-40 0-46 35-46 75s5 74 45 74" id="bb"/><g id="E"><use transform="matrix(0.07407407407407404,0,0,0.07407407407407404,0,0)" xlink:href="#ae"/><use transform="matrix(0.07407407407407404,0,0,0.07407407407407404,8.814814814814811,0)" xlink:href="#ai"/><use transform="matrix(0.07407407407407404,0,0,0.07407407407407404,23.62962962962962,0)" xlink:href="#bb"/><use transform="matrix(0.07407407407407404,0,0,0.07407407407407404,38.44444444444443,0)" xlink:href="#af"/><use transform="matrix(0.07407407407407404,0,0,0.07407407407407404,53.25925925925924,0)" xlink:href="#ai"/><use transform="matrix(0.07407407407407404,0,0,0.07407407407407404,68.07407407407405,0)" xlink:href="#ac"/><use transform="matrix(0.07407407407407404,0,0,0.07407407407407404,81.40740740740738,0)" xlink:href="#ad"/><use transform="matrix(0.07407407407407404,0,0,0.07407407407407404,88.81481481481478,0)" xlink:href="#av"/><use transform="matrix(0.07407407407407404,0,0,0.07407407407407404,103.62962962962959,0)" xlink:href="#aa"/><use transform="matrix(0.07407407407407404,0,0,0.07407407407407404,109.48148148148144,0)" xlink:href="#ab"/><use transform="matrix(0.07407407407407404,0,0,0.07407407407407404,124.29629629629625,0)" xlink:href="#ac"/><use transform="matrix(0.07407407407407404,0,0,0.07407407407407404,137.62962962962956,0)" xlink:href="#ad"/><use transform="matrix(0.07407407407407404,0,0,0.07407407407407404,145.03703703703695,0)" xlink:href="#ae"/><use transform="matrix(0.07407407407407404,0,0,0.07407407407407404,153.85185185185176,0)" xlink:href="#af"/><use transform="matrix(0.07407407407407404,0,0,0.07407407407407404,168.66666666666657,0)" xlink:href="#ag"/><use transform="matrix(0.07407407407407404,0,0,0.07407407407407404,181.9999999999999,0)" xlink:href="#ad"/><use transform="matrix(0.07407407407407404,0,0,0.07407407407407404,189.4074074074073,0)" xlink:href="#aa"/><use transform="matrix(0.07407407407407404,0,0,0.07407407407407404,195.2592592592591,0)" xlink:href="#ah"/><use transform="matrix(0.07407407407407404,0,0,0.07407407407407404,210.07407407407396,0)" xlink:href="#ab"/><use transform="matrix(0.07407407407407404,0,0,0.07407407407407404,224.88888888888877,0)" xlink:href="#al"/><use transform="matrix(0.07407407407407404,0,0,0.07407407407407404,233.70370370370358,0)" xlink:href="#aa"/><use transform="matrix(0.07407407407407404,0,0,0.07407407407407404,239.55555555555537,0)" xlink:href="#ag"/><use transform="matrix(0.07407407407407404,0,0,0.07407407407407404,252.88888888888872,0)" xlink:href="#ah"/><use transform="matrix(0.07407407407407404,0,0,0.07407407407407404,267.7037037037035,0)" xlink:href="#ar"/><use transform="matrix(0.07407407407407404,0,0,0.07407407407407404,282.5185185185183,0)" xlink:href="#ai"/><use transform="matrix(0.07407407407407404,0,0,0.07407407407407404,297.3333333333331,0)" xlink:href="#az"/></g><path fill="#333" d="M101-251c68 0 85 55 85 127S166 4 100 4C33 4 14-52 14-124c0-73 17-127 87-127zm-1 229c47 0 54-49 54-102s-4-102-53-102c-51 0-55 48-55 102 0 53 5 102 54 102" id="bc"/><g id="F"><use transform="matrix(0.07407407407407404,0,0,0.07407407407407404,0,0)" xlink:href="#aj"/><use transform="matrix(0.07407407407407404,0,0,0.07407407407407404,14.814814814814808,0)" xlink:href="#ak"/><use transform="matrix(0.07407407407407404,0,0,0.07407407407407404,29.629629629629616,0)" xlink:href="#ae"/><use transform="matrix(0.07407407407407404,0,0,0.07407407407407404,38.44444444444443,0)" xlink:href="#ak"/><use transform="matrix(0.07407407407407404,0,0,0.07407407407407404,53.25925925925924,0)" xlink:href="#ax"/><use transform="matrix(0.07407407407407404,0,0,0.07407407407407404,75.40740740740738,0)" xlink:href="#bc"/><use transform="matrix(0.07407407407407404,0,0,0.07407407407407404,90.22222222222219,0)" xlink:href="#az"/></g><path fill="#333" d="M27 0v-27h64v-190l-56 39v-29l58-41h29v221h61V0H27" id="bd"/><g id="G"><use transform="matrix(0.07407407407407404,0,0,0.07407407407407404,0,0)" xlink:href="#aj"/><use transform="matrix(0.07407407407407404,0,0,0.07407407407407404,14.814814814814808,0)" xlink:href="#ak"/><use transform="matrix(0.07407407407407404,0,0,0.07407407407407404,29.629629629629616,0)" xlink:href="#ae"/><use transform="matrix(0.07407407407407404,0,0,0.07407407407407404,38.44444444444443,0)" xlink:href="#ak"/><use transform="matrix(0.07407407407407404,0,0,0.07407407407407404,53.25925925925924,0)" xlink:href="#ax"/><use transform="matrix(0.07407407407407404,0,0,0.07407407407407404,75.40740740740738,0)" xlink:href="#bd"/><use transform="matrix(0.07407407407407404,0,0,0.07407407407407404,90.22222222222219,0)" xlink:href="#aq"/></g><g id="H"><use transform="matrix(0.07407407407407404,0,0,0.07407407407407404,0,0)" xlink:href="#ba"/><use transform="matrix(0.07407407407407404,0,0,0.07407407407407404,7.407407407407404,0)" xlink:href="#W"/><use transform="matrix(0.07407407407407404,0,0,0.07407407407407404,23.62962962962962,0)" xlink:href="#X"/><use transform="matrix(0.07407407407407404,0,0,0.07407407407407404,38.44444444444443,0)" xlink:href="#at"/><use transform="matrix(0.07407407407407404,0,0,0.07407407407407404,47.25925925925924,0)" xlink:href="#aG"/><use transform="matrix(0.07407407407407404,0,0,0.07407407407407404,57.629629629629605,0)" xlink:href="#aJ"/><use transform="matrix(0.07407407407407404,0,0,0.07407407407407404,73.85185185185182,0)" xlink:href="#as"/><use transform="matrix(0.07407407407407404,0,0,0.07407407407407404,88.66666666666663,0)" xlink:href="#at"/><use transform="matrix(0.07407407407407404,0,0,0.07407407407407404,97.48148148148144,0)" xlink:href="#au"/><use transform="matrix(0.07407407407407404,0,0,0.07407407407407404,104.88888888888884,0)" xlink:href="#V"/><use transform="matrix(0.07407407407407404,0,0,0.07407407407407404,121.11111111111106,0)" xlink:href="#W"/></g><g id="I"><use transform="matrix(0.07407407407407404,0,0,0.07407407407407404,0,0)" xlink:href="#aa"/><use transform="matrix(0.07407407407407404,0,0,0.07407407407407404,5.851851851851849,0)" xlink:href="#ag"/><use transform="matrix(0.07407407407407404,0,0,0.07407407407407404,19.185185185185176,0)" xlink:href="#ah"/><use transform="matrix(0.07407407407407404,0,0,0.07407407407407404,33.999999999999986,0)" xlink:href="#ar"/><use transform="matrix(0.07407407407407404,0,0,0.07407407407407404,48.814814814814795,0)" xlink:href="#ai"/></g><g id="J"><use transform="matrix(0.07407407407407404,0,0,0.07407407407407404,0,0)" xlink:href="#aj"/><use transform="matrix(0.07407407407407404,0,0,0.07407407407407404,14.814814814814808,0)" xlink:href="#ak"/><use transform="matrix(0.07407407407407404,0,0,0.07407407407407404,29.629629629629616,0)" xlink:href="#ae"/><use transform="matrix(0.07407407407407404,0,0,0.07407407407407404,38.44444444444443,0)" xlink:href="#ak"/><use transform="matrix(0.07407407407407404,0,0,0.07407407407407404,53.25925925925924,0)" xlink:href="#ax"/><use transform="matrix(0.07407407407407404,0,0,0.07407407407407404,75.40740740740738,0)" xlink:href="#bc"/></g><g id="K"><use transform="matrix(0.07407407407407404,0,0,0.07407407407407404,0,0)" xlink:href="#aj"/><use transform="matrix(0.07407407407407404,0,0,0.07407407407407404,14.814814814814808,0)" xlink:href="#ak"/><use transform="matrix(0.07407407407407404,0,0,0.07407407407407404,29.629629629629616,0)" xlink:href="#ae"/><use transform="matrix(0.07407407407407404,0,0,0.07407407407407404,38.44444444444443,0)" xlink:href="#ak"/><use transform="matrix(0.07407407407407404,0,0,0.07407407407407404,53.25925925925924,0)" xlink:href="#ax"/><use transform="matrix(0.07407407407407404,0,0,0.07407407407407404,75.40740740740738,0)" xlink:href="#bd"/></g><g id="L"><use transform="matrix(0.07407407407407404,0,0,0.07407407407407404,0,0)" xlink:href="#ad"/><use transform="matrix(0.07407407407407404,0,0,0.07407407407407404,7.407407407407404,0)" xlink:href="#ah"/><use transform="matrix(0.07407407407407404,0,0,0.07407407407407404,22.222222222222214,0)" xlink:href="#av"/><use transform="matrix(0.07407407407407404,0,0,0.07407407407407404,37.03703703703702,0)" xlink:href="#ac"/><use transform="matrix(0.07407407407407404,0,0,0.07407407407407404,50.370370370370345,0)" xlink:href="#ad"/><use transform="matrix(0.07407407407407404,0,0,0.07407407407407404,57.77777777777775,0)" xlink:href="#ae"/><use transform="matrix(0.07407407407407404,0,0,0.07407407407407404,66.59259259259257,0)" xlink:href="#ai"/><use transform="matrix(0.07407407407407404,0,0,0.07407407407407404,81.40740740740738,0)" xlink:href="#ak"/><use transform="matrix(0.07407407407407404,0,0,0.07407407407407404,96.22222222222219,0)" xlink:href="#ax"/><use transform="matrix(0.07407407407407404,0,0,0.07407407407407404,118.37037037037032,0)" xlink:href="#al"/><use transform="matrix(0.07407407407407404,0,0,0.07407407407407404,127.18518518518513,0)" xlink:href="#aq"/></g><g id="M"><use transform="matrix(0.04938271604938272,0,0,0.04938271604938272,0,0)" xlink:href="#aB"/><use transform="matrix(0.04938271604938272,0,0,0.04938271604938272,10.370370370370372,0)" xlink:href="#Y"/><use transform="matrix(0.04938271604938272,0,0,0.04938271604938272,15.308641975308642,0)" xlink:href="#au"/><use transform="matrix(0.04938271604938272,0,0,0.04938271604938272,20.24691358024692,0)" xlink:href="#X"/><use transform="matrix(0.04938271604938272,0,0,0.04938271604938272,30.123456790123466,0)" xlink:href="#at"/><use transform="matrix(0.04938271604938272,0,0,0.04938271604938272,36.00000000000001,0)" xlink:href="#X"/><use transform="matrix(0.04938271604938272,0,0,0.04938271604938272,45.87654320987655,0)" xlink:href="#aE"/></g><path d="M24 0v-248h195v40H76v63h132v40H76v65h150V0H24" id="be"/><path d="M85 4C-2 5 27-109 22-190h50c7 57-23 150 33 157 60-5 35-97 40-157h50l1 190h-47c-2-12 1-28-3-38-12 25-28 42-61 42" id="bf"/><path d="M220-157c-53 9-28 100-34 157h-49v-107c1-27-5-49-29-50C55-147 81-57 75 0H25l-1-190h47c2 12-1 28 3 38 10-53 101-56 108 0 13-22 24-43 59-42 82 1 51 116 57 194h-49v-107c-1-25-5-48-29-50" id="bg"/><g id="N"><use transform="matrix(0.05,0,0,0.05,0,0)" xlink:href="#aP"/><use transform="matrix(0.05,0,0,0.05,10.5,0)" xlink:href="#aP"/><use transform="matrix(0.05,0,0,0.05,21,0)" xlink:href="#be"/><use transform="matrix(0.05,0,0,0.05,33,0)" xlink:href="#aR"/><use transform="matrix(0.05,0,0,0.05,43.95,0)" xlink:href="#bf"/><use transform="matrix(0.05,0,0,0.05,54.900000000000006,0)" xlink:href="#bg"/><use transform="matrix(0.05,0,0,0.05,70.9,0)" xlink:href="#aY"/><use transform="matrix(0.05,0,0,0.05,81.4,0)" xlink:href="#aY"/></g><path fill="#333" d="M88-194c31-1 46 15 58 34l-1-101h50l1 261h-48c-2-10 0-23-3-31C134-8 116 4 84 4 32 4 16-41 15-95c0-56 19-97 73-99zm17 164c33 0 40-30 41-66 1-37-9-64-41-64s-38 30-39 65c0 43 13 65 39 65" id="bh"/><g id="O"><use transform="matrix(0.07407407407407404,0,0,0.07407407407407404,0,0)" xlink:href="#ba"/><use transform="matrix(0.07407407407407404,0,0,0.07407407407407404,7.407407407407404,0)" xlink:href="#W"/><use transform="matrix(0.07407407407407404,0,0,0.07407407407407404,23.62962962962962,0)" xlink:href="#X"/><use transform="matrix(0.07407407407407404,0,0,0.07407407407407404,38.44444444444443,0)" xlink:href="#at"/><use transform="matrix(0.07407407407407404,0,0,0.07407407407407404,47.25925925925924,0)" xlink:href="#aG"/><use transform="matrix(0.07407407407407404,0,0,0.07407407407407404,57.629629629629605,0)" xlink:href="#aJ"/><use transform="matrix(0.07407407407407404,0,0,0.07407407407407404,73.85185185185182,0)" xlink:href="#as"/><use transform="matrix(0.07407407407407404,0,0,0.07407407407407404,88.66666666666663,0)" xlink:href="#at"/><use transform="matrix(0.07407407407407404,0,0,0.07407407407407404,97.48148148148144,0)" xlink:href="#au"/><use transform="matrix(0.07407407407407404,0,0,0.07407407407407404,104.88888888888884,0)" xlink:href="#V"/><use transform="matrix(0.07407407407407404,0,0,0.07407407407407404,121.11111111111106,0)" xlink:href="#W"/><use transform="matrix(0.07407407407407404,0,0,0.07407407407407404,137.33333333333326,0)" xlink:href="#U"/><use transform="matrix(0.07407407407407404,0,0,0.07407407407407404,156.51851851851842,0)" xlink:href="#V"/><use transform="matrix(0.07407407407407404,0,0,0.07407407407407404,172.74074074074062,0)" xlink:href="#bh"/><use transform="matrix(0.07407407407407404,0,0,0.07407407407407404,188.96296296296288,0)" xlink:href="#Z"/></g><path fill="#333" d="M30 0v-248h187v28H63v79h144v27H63v87h162V0H30" id="bi"/><path fill="#333" d="M195 0l-74-108L45 0H8l94-129-87-119h37l69 98 67-98h37l-84 118L233 0h-38" id="bj"/><path fill="#333" d="M127-220V0H93v-220H8v-28h204v28h-85" id="bk"/><g id="P"><use transform="matrix(0.07407407407407404,0,0,0.07407407407407404,0,0)" xlink:href="#bi"/><use transform="matrix(0.07407407407407404,0,0,0.07407407407407404,17.77777777777777,0)" xlink:href="#bj"/><use transform="matrix(0.07407407407407404,0,0,0.07407407407407404,35.55555555555554,0)" xlink:href="#aH"/><use transform="matrix(0.07407407407407404,0,0,0.07407407407407404,42.96296296296295,0)" xlink:href="#bk"/></g><path fill="#333" d="M190 0L58-211 59 0H30v-248h39L202-35l-2-213h31V0h-41" id="bl"/><path fill="#333" d="M140-251c81 0 123 46 123 126C263-46 219 4 140 4 59 4 17-45 17-125s42-126 123-126zm0 227c63 0 89-41 89-101s-29-99-89-99c-61 0-89 39-89 99S79-25 140-24" id="bm"/><g id="Q"><use transform="matrix(0.07407407407407404,0,0,0.07407407407407404,0,0)" xlink:href="#bl"/><use transform="matrix(0.07407407407407404,0,0,0.07407407407407404,19.185185185185176,0)" xlink:href="#bm"/><use transform="matrix(0.07407407407407404,0,0,0.07407407407407404,39.92592592592591,0)" xlink:href="#av"/><use transform="matrix(0.07407407407407404,0,0,0.07407407407407404,54.74074074074072,0)" xlink:href="#bm"/><use transform="matrix(0.07407407407407404,0,0,0.07407407407407404,75.48148148148145,0)" xlink:href="#ao"/></g><path fill="#333" d="M266 0h-40l-56-210L115 0H75L2-248h35L96-30l15-64 43-154h32l59 218 59-218h35" id="bn"/><path fill="#333" d="M233-177c-1 41-23 64-60 70L243 0h-38l-65-103H63V0H30v-248c88 3 205-21 203 71zM63-129c60-2 137 13 137-47 0-61-80-42-137-45v92" id="bo"/><g id="R"><use transform="matrix(0.07407407407407404,0,0,0.07407407407407404,0,0)" xlink:href="#bn"/><use transform="matrix(0.07407407407407404,0,0,0.07407407407407404,25.1111111111111,0)" xlink:href="#bo"/><use transform="matrix(0.07407407407407404,0,0,0.07407407407407404,44.296296296296276,0)" xlink:href="#aH"/><use transform="matrix(0.07407407407407404,0,0,0.07407407407407404,51.70370370370368,0)" xlink:href="#bk"/><use transform="matrix(0.07407407407407404,0,0,0.07407407407407404,67.9259259259259,0)" xlink:href="#bi"/></g><path fill="#333" d="M205 0l-28-72H64L36 0H1l101-248h38L239 0h-34zm-38-99l-47-123c-12 45-31 82-46 123h93" id="bp"/><path fill="#333" d="M30-248c118-7 216 8 213 122C240-48 200 0 122 0H30v-248zM63-27c89 8 146-16 146-99s-60-101-146-95v194" id="bq"/><g id="S"><use transform="matrix(0.07407407407407404,0,0,0.07407407407407404,0,0)" xlink:href="#bo"/><use transform="matrix(0.07407407407407404,0,0,0.07407407407407404,19.185185185185176,0)" xlink:href="#bi"/><use transform="matrix(0.07407407407407404,0,0,0.07407407407407404,36.96296296296295,0)" xlink:href="#bp"/><use transform="matrix(0.07407407407407404,0,0,0.07407407407407404,54.74074074074072,0)" xlink:href="#bq"/></g><path fill="#333" d="M212-179c-10-28-35-45-73-45-59 0-87 40-87 99 0 60 29 101 89 101 43 0 62-24 78-52l27 14C228-24 195 4 139 4 59 4 22-46 18-125c-6-104 99-153 187-111 19 9 31 26 39 46" id="br"/><path fill="#333" d="M137-103V0h-34v-103L8-248h37l75 118 75-118h37" id="bs"/><g id="T"><use transform="matrix(0.07407407407407404,0,0,0.07407407407407404,0,0)" xlink:href="#br"/><use transform="matrix(0.07407407407407404,0,0,0.07407407407407404,19.185185185185176,0)" xlink:href="#bm"/><use transform="matrix(0.07407407407407404,0,0,0.07407407407407404,39.92592592592591,0)" xlink:href="#ao"/><use transform="matrix(0.07407407407407404,0,0,0.07407407407407404,57.70370370370368,0)" xlink:href="#bs"/></g></defs></g></svg>