<svg xmlns="http://www.w3.org/2000/svg" xmlns:xlink="http://www.w3.org/1999/xlink" xmlns:lucid="lucid" width="1318.77" height="760"><g transform="translate(-260 -200)" lucid:page-tab-id="4o~_HVINwF7y"><path d="M740 226c0-3.3 2.7-6 6-6h348c3.3 0 6 2.7 6 6v282c0 3.3-2.7 6-6 6H746c-3.3 0-6-2.7-6-6z" stroke="#5e5e5e" stroke-width="3" fill="#fff"/><path d="M740 300.53h360" stroke="#5e5e5e" stroke-width="3" fill="none"/><use xlink:href="#a" transform="matrix(1,0,0,1,748,228) translate(84.72314814814816 21.744444444444447)"/><use xlink:href="#b" transform="matrix(1,0,0,1,748,228) translate(125.09382716049383 54.011111111111106)"/><use xlink:href="#c" transform="matrix(1,0,0,1,752,308.5333333333333) translate(120.00000000000001 71.83333333333333)"/><use xlink:href="#d" transform="matrix(1,0,0,1,752,308.5333333333333) translate(117.74074074074075 103.83333333333333)"/><use xlink:href="#e" transform="matrix(1,0,0,1,752,308.5333333333333) translate(71.11111111111113 135.83333333333334)"/><path d="M396.67 717.5V623c0-3.3 2.68-6 6-6H914c3.3 0 6-2.7 6-6v-71.02" stroke="#5e5e5e" stroke-width="2" fill="none"/><path d="M397.67 718.5h-2v-1.03h2z" stroke="#5e5e5e" stroke-width=".05" fill="#5e5e5e"/><path d="M920 517.46l12.73 21.52h-25.46z" stroke="#5e5e5e" stroke-width="2" fill="#fff"/><path d="M738.02 717.5V623c0-3.3 2.7-6 6-6h168.4c3.33 0 6-2.7 6-6v-71.02" stroke="#5e5e5e" stroke-width="2" fill="none"/><path d="M739.02 718.5h-2v-1.03h2z" stroke="#5e5e5e" stroke-width=".05" fill="#5e5e5e"/><path d="M918.43 517.46l12.73 21.52H905.7z" stroke="#5e5e5e" stroke-width="2" fill="#fff"/><path d="M1089.38 717.5V623c0-3.3-2.68-6-6-6H926c-3.3 0-6-2.7-6-6v-71.02" stroke="#5e5e5e" stroke-width="2" fill="none"/><path d="M1090.38 718.5h-2v-1.03h2z" stroke="#5e5e5e" stroke-width=".05" fill="#5e5e5e"/><path d="M920 517.46l12.73 21.52h-25.46z" stroke="#5e5e5e" stroke-width="2" fill="#fff"/><path d="M1442.1 717.5V623c0-3.3-2.7-6-6-6H926c-3.3 0-6-2.7-6-6v-71.02" stroke="#5e5e5e" stroke-width="2" fill="none"/><path d="M1443.1 718.5h-2v-1.03h2z" stroke="#5e5e5e" stroke-width=".05" fill="#5e5e5e"/><path d="M920 517.46l12.73 21.52h-25.46z" stroke="#5e5e5e" stroke-width="2" fill="#fff"/><path d="M280 726c0-3.3 2.7-6 6-6h221.33c3.32 0 6 2.7 6 6v134c0 3.3-2.68 6-6 6H286c-3.3 0-6-2.7-6-6z" stroke="#5e5e5e" stroke-width="3" fill="#fff"/><path d="M280 768h233.33" stroke="#5e5e5e" stroke-width="3" fill="none"/><use xlink:href="#f" transform="matrix(1,0,0,1,288,728) translate(56.55555555555558 21.333333333333332)"/><use xlink:href="#g" transform="matrix(1,0,0,1,292,776) translate(1.4444444444444997 46.33333333333333)"/><path d="M611.36 726c0-3.3 2.68-6 6-6H858.7c3.3 0 6 2.7 6 6v208c0 3.3-2.7 6-6 6H617.35c-3.32 0-6-2.7-6-6z" stroke="#5e5e5e" stroke-width="3" fill="#fff"/><path d="M611.36 768H864.7" stroke="#5e5e5e" stroke-width="3" fill="none"/><use xlink:href="#h" transform="matrix(1,0,0,1,619.3582677165354,728) translate(77.59259259259261 21.333333333333332)"/><use xlink:href="#i" transform="matrix(1,0,0,1,623.3582677165354,776) translate(78.03703703703705 51.33333333333334)"/><use xlink:href="#j" transform="matrix(1,0,0,1,623.3582677165354,776) translate(-0.37037037037030984 83.33333333333334)"/><use xlink:href="#k" transform="matrix(1,0,0,1,623.3582677165354,776) translate(26.185185185185233 115.33333333333333)"/><path d="M962.72 726c0-3.3 2.68-6 6-6h241.33c3.3 0 6 2.7 6 6v176c0 3.3-2.7 6-6 6H968.72c-3.32 0-6-2.7-6-6z" stroke="#5e5e5e" stroke-width="3" fill="#fff"/><path d="M962.72 768h253.33" stroke="#5e5e5e" stroke-width="3" fill="none"/><use xlink:href="#l" transform="matrix(1,0,0,1,970.7165354330707,728) translate(90.92592592592594 21.333333333333332)"/><use xlink:href="#i" transform="matrix(1,0,0,1,974.7165354330707,776) translate(78.03703703703705 51.333333333333336)"/><use xlink:href="#m" transform="matrix(1,0,0,1,974.7165354330707,776) translate(-0.37037037037030984 83.33333333333333)"/><path d="M1325.43 726c0-3.3 2.7-6 6-6h221.34c3.3 0 6 2.7 6 6v134c0 3.3-2.7 6-6 6h-221.34c-3.3 0-6-2.7-6-6z" stroke="#5e5e5e" stroke-width="3" fill="#fff"/><path d="M1325.43 768h233.34" stroke="#5e5e5e" stroke-width="3" fill="none"/><g><use xlink:href="#n" transform="matrix(1,0,0,1,1333.4330708661414,728) translate(57.96296296296298 21.333333333333332)"/></g><g><use xlink:href="#o" transform="matrix(1,0,0,1,1337.4330708661414,776) translate(68.03703703703705 46.33333333333333)"/></g><defs><path d="M15-91v-56l181-69v40L49-119l147 57v40" id="p"/><path d="M24 0v-248h52V0H24" id="q"/><path d="M135-194c87-1 58 113 63 194h-50c-7-57 23-157-34-157-59 0-34 97-39 157H25l-1-190h47c2 12-1 28 3 38 12-26 28-41 61-42" id="r"/><path d="M115-3C79 11 28 4 28-45v-112H4v-33h27l15-45h31v45h36v33H77v99c-1 23 16 31 38 25v30" id="s"/><path d="M185-48c-13 30-37 53-82 52C43 2 14-33 14-96s30-98 90-98c62 0 83 45 84 108H66c0 31 8 55 39 56 18 0 30-7 34-22zm-45-69c5-46-57-63-70-21-2 6-4 13-4 21h74" id="t"/><path d="M135-150c-39-12-60 13-60 57V0H25l-1-190h47c2 13-1 29 3 40 6-28 27-53 61-41v41" id="u"/><path d="M121-226c-27-7-43 5-38 36h38v33H83V0H34v-157H6v-33h28c-9-59 32-81 87-68v32" id="v"/><path d="M133-34C117-15 103 5 69 4 32 3 11-16 11-54c-1-60 55-63 116-61 1-26-3-47-28-47-18 1-26 9-28 27l-52-2c7-38 36-58 82-57s74 22 75 68l1 82c-1 14 12 18 25 15v27c-30 8-71 5-69-32zm-48 3c29 0 43-24 42-57-32 0-66-3-65 30 0 17 8 27 23 27" id="w"/><path d="M190-63c-7 42-38 67-86 67-59 0-84-38-90-98-12-110 154-137 174-36l-49 2c-2-19-15-32-35-32-30 0-35 28-38 64-6 74 65 87 74 30" id="x"/><path d="M15-22v-40l146-57-146-57v-40l181 69v56" id="y"/><g id="a"><use transform="matrix(0.07469135802469135,0,0,0.07469135802469135,0,0)" xlink:href="#p"/><use transform="matrix(0.07469135802469135,0,0,0.07469135802469135,15.685185185185183,0)" xlink:href="#p"/><use transform="matrix(0.07469135802469135,0,0,0.07469135802469135,31.370370370370367,0)" xlink:href="#q"/><use transform="matrix(0.07469135802469135,0,0,0.07469135802469135,38.8395061728395,0)" xlink:href="#r"/><use transform="matrix(0.07469135802469135,0,0,0.07469135802469135,55.19691358024689,0)" xlink:href="#s"/><use transform="matrix(0.07469135802469135,0,0,0.07469135802469135,64.08518518518517,0)" xlink:href="#t"/><use transform="matrix(0.07469135802469135,0,0,0.07469135802469135,79.02345679012343,0)" xlink:href="#u"/><use transform="matrix(0.07469135802469135,0,0,0.07469135802469135,89.48024691358022,0)" xlink:href="#v"/><use transform="matrix(0.07469135802469135,0,0,0.07469135802469135,98.36851851851848,0)" xlink:href="#w"/><use transform="matrix(0.07469135802469135,0,0,0.07469135802469135,113.30679012345675,0)" xlink:href="#x"/><use transform="matrix(0.07469135802469135,0,0,0.07469135802469135,128.24506172839503,0)" xlink:href="#t"/><use transform="matrix(0.07469135802469135,0,0,0.07469135802469135,143.1833333333333,0)" xlink:href="#y"/><use transform="matrix(0.07469135802469135,0,0,0.07469135802469135,158.8685185185185,0)" xlink:href="#y"/></g><path d="M230 0l2-204L168 0h-37L68-204 70 0H24v-248h70l56 185 57-185h69V0h-46" id="z"/><path d="M110-194c64 0 96 36 96 99 0 64-35 99-97 99-61 0-95-36-95-99 0-62 34-99 96-99zm-1 164c35 0 45-28 45-65 0-40-10-65-43-65-34 0-45 26-45 65 0 36 10 65 43 65" id="A"/><path d="M88-194c31-1 46 15 58 34l-1-101h50l1 261h-48c-2-10 0-23-3-31C134-8 116 4 84 4 32 4 16-41 15-95c0-56 19-97 73-99zm17 164c33 0 40-30 41-66 1-37-9-64-41-64s-38 30-39 65c0 43 13 65 39 65" id="B"/><path d="M85 4C-2 5 27-109 22-190h50c7 57-23 150 33 157 60-5 35-97 40-157h50l1 190h-47c-2-12 1-28-3-38-12 25-28 42-61 42" id="C"/><path d="M25 0v-261h50V0H25" id="D"/><g id="b"><use transform="matrix(0.07469135802469135,0,0,0.07469135802469135,0,0)" xlink:href="#z"/><use transform="matrix(0.07469135802469135,0,0,0.07469135802469135,22.33271604938271,0)" xlink:href="#A"/><use transform="matrix(0.07469135802469135,0,0,0.07469135802469135,38.69012345679012,0)" xlink:href="#B"/><use transform="matrix(0.07469135802469135,0,0,0.07469135802469135,55.04753086419753,0)" xlink:href="#C"/><use transform="matrix(0.07469135802469135,0,0,0.07469135802469135,71.40493827160493,0)" xlink:href="#D"/><use transform="matrix(0.07469135802469135,0,0,0.07469135802469135,78.87407407407407,0)" xlink:href="#t"/></g><path fill="#333" d="M100-194c62-1 85 37 85 99 1 63-27 99-86 99S16-35 15-95c0-66 28-99 85-99zM99-20c44 1 53-31 53-75 0-43-8-75-51-75s-53 32-53 75 10 74 51 75" id="E"/><path fill="#333" d="M117-194c89-4 53 116 60 194h-32v-121c0-31-8-49-39-48C34-167 62-67 57 0H25l-1-190h30c1 10-1 24 2 32 11-22 29-35 61-36" id="F"/><path fill="#333" d="M-5 72V49h209v23H-5" id="G"/><path fill="#333" d="M24-231v-30h32v30H24zM24 0v-190h32V0H24" id="H"/><path fill="#333" d="M59-47c-2 24 18 29 38 22v24C64 9 27 4 27-40v-127H5v-23h24l9-43h21v43h35v23H59v120" id="I"/><path fill="#333" d="M87 75C49 33 22-17 22-94c0-76 28-126 65-167h31c-38 41-64 92-64 168S80 34 118 75H87" id="J"/><path fill="#333" d="M33-261c38 41 65 92 65 168S71 34 33 75H2C39 34 66-17 66-93S39-220 2-261h31" id="K"/><g id="c"><use transform="matrix(0.07407407407407407,0,0,0.07407407407407407,0,0)" xlink:href="#E"/><use transform="matrix(0.07407407407407407,0,0,0.07407407407407407,14.814814814814813,0)" xlink:href="#F"/><use transform="matrix(0.07407407407407407,0,0,0.07407407407407407,29.629629629629626,0)" xlink:href="#G"/><use transform="matrix(0.07407407407407407,0,0,0.07407407407407407,44.44444444444444,0)" xlink:href="#H"/><use transform="matrix(0.07407407407407407,0,0,0.07407407407407407,50.29629629629629,0)" xlink:href="#F"/><use transform="matrix(0.07407407407407407,0,0,0.07407407407407407,65.1111111111111,0)" xlink:href="#H"/><use transform="matrix(0.07407407407407407,0,0,0.07407407407407407,70.96296296296295,0)" xlink:href="#I"/><use transform="matrix(0.07407407407407407,0,0,0.07407407407407407,78.37037037037035,0)" xlink:href="#J"/><use transform="matrix(0.07407407407407407,0,0,0.07407407407407407,87.18518518518516,0)" xlink:href="#K"/></g><path fill="#333" d="M114-163C36-179 61-72 57 0H25l-1-190h30c1 12-1 29 2 39 6-27 23-49 58-41v29" id="L"/><path fill="#333" d="M84 4C-5 8 30-112 23-190h32v120c0 31 7 50 39 49 72-2 45-101 50-169h31l1 190h-30c-1-10 1-25-2-33-11 22-28 36-60 37" id="M"/><g id="d"><use transform="matrix(0.07407407407407407,0,0,0.07407407407407407,0,0)" xlink:href="#E"/><use transform="matrix(0.07407407407407407,0,0,0.07407407407407407,14.814814814814813,0)" xlink:href="#F"/><use transform="matrix(0.07407407407407407,0,0,0.07407407407407407,29.629629629629626,0)" xlink:href="#G"/><use transform="matrix(0.07407407407407407,0,0,0.07407407407407407,44.44444444444444,0)" xlink:href="#L"/><use transform="matrix(0.07407407407407407,0,0,0.07407407407407407,53.25925925925926,0)" xlink:href="#M"/><use transform="matrix(0.07407407407407407,0,0,0.07407407407407407,68.07407407407408,0)" xlink:href="#F"/><use transform="matrix(0.07407407407407407,0,0,0.07407407407407407,82.88888888888889,0)" xlink:href="#J"/><use transform="matrix(0.07407407407407407,0,0,0.07407407407407407,91.7037037037037,0)" xlink:href="#K"/></g><path fill="#333" d="M115-194c53 0 69 39 70 98 0 66-23 100-70 100C84 3 66-7 56-30L54 0H23l1-261h32v101c10-23 28-34 59-34zm-8 174c40 0 45-34 45-75 0-40-5-75-45-74-42 0-51 32-51 76 0 43 10 73 51 73" id="N"/><path fill="#333" d="M100-194c63 0 86 42 84 106H49c0 40 14 67 53 68 26 1 43-12 49-29l28 8c-11 28-37 45-77 45C44 4 14-33 15-96c1-61 26-98 85-98zm52 81c6-60-76-77-97-28-3 7-6 17-6 28h103" id="O"/><path fill="#333" d="M101-234c-31-9-42 10-38 44h38v23H63V0H32v-167H5v-23h27c-7-52 17-82 69-68v24" id="P"/><path fill="#333" d="M141 0L90-78 38 0H4l68-98-65-92h35l48 74 47-74h35l-64 92 68 98h-35" id="Q"/><g id="e"><use transform="matrix(0.07407407407407407,0,0,0.07407407407407407,0,0)" xlink:href="#E"/><use transform="matrix(0.07407407407407407,0,0,0.07407407407407407,14.814814814814813,0)" xlink:href="#F"/><use transform="matrix(0.07407407407407407,0,0,0.07407407407407407,29.629629629629626,0)" xlink:href="#G"/><use transform="matrix(0.07407407407407407,0,0,0.07407407407407407,44.44444444444444,0)" xlink:href="#N"/><use transform="matrix(0.07407407407407407,0,0,0.07407407407407407,59.25925925925925,0)" xlink:href="#O"/><use transform="matrix(0.07407407407407407,0,0,0.07407407407407407,74.07407407407406,0)" xlink:href="#P"/><use transform="matrix(0.07407407407407407,0,0,0.07407407407407407,81.48148148148147,0)" xlink:href="#E"/><use transform="matrix(0.07407407407407407,0,0,0.07407407407407407,96.29629629629628,0)" xlink:href="#L"/><use transform="matrix(0.07407407407407407,0,0,0.07407407407407407,105.11111111111109,0)" xlink:href="#O"/><use transform="matrix(0.07407407407407407,0,0,0.07407407407407407,119.9259259259259,0)" xlink:href="#G"/><use transform="matrix(0.07407407407407407,0,0,0.07407407407407407,134.7407407407407,0)" xlink:href="#O"/><use transform="matrix(0.07407407407407407,0,0,0.07407407407407407,149.55555555555551,0)" xlink:href="#Q"/><use transform="matrix(0.07407407407407407,0,0,0.07407407407407407,162.88888888888886,0)" xlink:href="#H"/><use transform="matrix(0.07407407407407407,0,0,0.07407407407407407,168.7407407407407,0)" xlink:href="#I"/><use transform="matrix(0.07407407407407407,0,0,0.07407407407407407,176.14814814814815,0)" xlink:href="#J"/><use transform="matrix(0.07407407407407407,0,0,0.07407407407407407,184.9629629629629,0)" xlink:href="#K"/></g><path fill="#333" d="M67-125c0 53 21 87 73 88 37 1 54-22 65-47l45 17C233-25 199 4 140 4 58 4 20-42 15-125 8-235 124-281 211-232c18 10 29 29 36 50l-46 12c-8-25-30-41-62-41-52 0-71 34-72 86" id="R"/><path fill="#333" d="M110-194c64 0 96 36 96 99 0 64-35 99-97 99-61 0-95-36-95-99 0-62 34-99 96-99zm-1 164c35 0 45-28 45-65 0-40-10-65-43-65-34 0-45 26-45 65 0 36 10 65 43 65" id="S"/><path fill="#333" d="M135-194c87-1 58 113 63 194h-50c-7-57 23-157-34-157-59 0-34 97-39 157H25l-1-190h47c2 12-1 28 3 38 12-26 28-41 61-42" id="T"/><path fill="#333" d="M137-138c1-29-70-34-71-4 15 46 118 7 119 86 1 83-164 76-172 9l43-7c4 19 20 25 44 25 33 8 57-30 24-41C81-84 22-81 20-136c-2-80 154-74 161-7" id="U"/><path fill="#333" d="M25 0v-261h50V0H25" id="V"/><path fill="#333" d="M185-48c-13 30-37 53-82 52C43 2 14-33 14-96s30-98 90-98c62 0 83 45 84 108H66c0 31 8 55 39 56 18 0 30-7 34-22zm-45-69c5-46-57-63-70-21-2 6-4 13-4 21h74" id="W"/><g id="f"><use transform="matrix(0.07407407407407404,0,0,0.07407407407407404,0,0)" xlink:href="#R"/><use transform="matrix(0.07407407407407404,0,0,0.07407407407407404,19.185185185185176,0)" xlink:href="#S"/><use transform="matrix(0.07407407407407404,0,0,0.07407407407407404,35.40740740740739,0)" xlink:href="#T"/><use transform="matrix(0.07407407407407404,0,0,0.07407407407407404,51.629629629629605,0)" xlink:href="#U"/><use transform="matrix(0.07407407407407404,0,0,0.07407407407407404,66.44444444444441,0)" xlink:href="#S"/><use transform="matrix(0.07407407407407404,0,0,0.07407407407407404,82.66666666666663,0)" xlink:href="#V"/><use transform="matrix(0.07407407407407404,0,0,0.07407407407407404,90.07407407407403,0)" xlink:href="#W"/></g><path fill="#333" d="M143 0L79-87 56-68V0H24v-261h32v163l83-92h37l-77 82L181 0h-38" id="X"/><path fill="#333" d="M24 0v-261h32V0H24" id="Y"/><path fill="#333" d="M212-179c-10-28-35-45-73-45-59 0-87 40-87 99 0 60 29 101 89 101 43 0 62-24 78-52l27 14C228-24 195 4 139 4 59 4 22-46 18-125c-6-104 99-153 187-111 19 9 31 26 39 46" id="Z"/><path fill="#333" d="M96-169c-40 0-48 33-48 73s9 75 48 75c24 0 41-14 43-38l32 2c-6 37-31 61-74 61-59 0-76-41-82-99-10-93 101-131 147-64 4 7 5 14 7 22l-32 3c-4-21-16-35-41-35" id="aa"/><g id="g"><use transform="matrix(0.07407407407407404,0,0,0.07407407407407404,0,0)" xlink:href="#X"/><use transform="matrix(0.07407407407407404,0,0,0.07407407407407404,13.333333333333327,0)" xlink:href="#O"/><use transform="matrix(0.07407407407407404,0,0,0.07407407407407404,28.148148148148135,0)" xlink:href="#L"/><use transform="matrix(0.07407407407407404,0,0,0.07407407407407404,36.96296296296295,0)" xlink:href="#F"/><use transform="matrix(0.07407407407407404,0,0,0.07407407407407404,51.77777777777776,0)" xlink:href="#O"/><use transform="matrix(0.07407407407407404,0,0,0.07407407407407404,66.59259259259257,0)" xlink:href="#Y"/><use transform="matrix(0.07407407407407404,0,0,0.07407407407407404,72.44444444444441,0)" xlink:href="#Z"/><use transform="matrix(0.07407407407407404,0,0,0.07407407407407404,91.62962962962959,0)" xlink:href="#E"/><use transform="matrix(0.07407407407407404,0,0,0.07407407407407404,106.4444444444444,0)" xlink:href="#F"/><use transform="matrix(0.07407407407407404,0,0,0.07407407407407404,121.25925925925921,0)" xlink:href="#F"/><use transform="matrix(0.07407407407407404,0,0,0.07407407407407404,136.07407407407402,0)" xlink:href="#O"/><use transform="matrix(0.07407407407407404,0,0,0.07407407407407404,150.88888888888883,0)" xlink:href="#aa"/><use transform="matrix(0.07407407407407404,0,0,0.07407407407407404,164.22222222222214,0)" xlink:href="#I"/><use transform="matrix(0.07407407407407404,0,0,0.07407407407407404,171.62962962962953,0)" xlink:href="#H"/><use transform="matrix(0.07407407407407404,0,0,0.07407407407407404,177.48148148148138,0)" xlink:href="#E"/><use transform="matrix(0.07407407407407404,0,0,0.07407407407407404,192.2962962962962,0)" xlink:href="#F"/></g><path fill="#333" d="M195 0l-88-114-31 24V0H24v-248h52v113l112-113h60L142-143 257 0h-62" id="ab"/><path fill="#333" d="M135-150c-39-12-60 13-60 57V0H25l-1-190h47c2 13-1 29 3 40 6-28 27-53 61-41v41" id="ac"/><g id="h"><use transform="matrix(0.07407407407407404,0,0,0.07407407407407404,0,0)" xlink:href="#ab"/><use transform="matrix(0.07407407407407404,0,0,0.07407407407407404,19.185185185185176,0)" xlink:href="#W"/><use transform="matrix(0.07407407407407404,0,0,0.07407407407407404,33.999999999999986,0)" xlink:href="#ac"/><use transform="matrix(0.07407407407407404,0,0,0.07407407407407404,44.37037037037035,0)" xlink:href="#T"/><use transform="matrix(0.07407407407407404,0,0,0.07407407407407404,60.59259259259257,0)" xlink:href="#W"/><use transform="matrix(0.07407407407407404,0,0,0.07407407407407404,75.40740740740738,0)" xlink:href="#V"/></g><path fill="#333" d="M135-143c-3-34-86-38-87 0 15 53 115 12 119 90S17 21 10-45l28-5c4 36 97 45 98 0-10-56-113-15-118-90-4-57 82-63 122-42 12 7 21 19 24 35" id="ad"/><path fill="#333" d="M108 0H70L1-190h34L89-25l56-165h34" id="ae"/><g id="i"><use transform="matrix(0.07407407407407404,0,0,0.07407407407407404,0,0)" xlink:href="#ad"/><use transform="matrix(0.07407407407407404,0,0,0.07407407407407404,13.333333333333327,0)" xlink:href="#O"/><use transform="matrix(0.07407407407407404,0,0,0.07407407407407404,28.148148148148135,0)" xlink:href="#L"/><use transform="matrix(0.07407407407407404,0,0,0.07407407407407404,36.96296296296295,0)" xlink:href="#ae"/><use transform="matrix(0.07407407407407404,0,0,0.07407407407407404,50.296296296296276,0)" xlink:href="#O"/><use transform="matrix(0.07407407407407404,0,0,0.07407407407407404,65.11111111111109,0)" xlink:href="#L"/></g><path fill="#333" d="M210-169c-67 3-38 105-44 169h-31v-121c0-29-5-50-35-48C34-165 62-65 56 0H25l-1-190h30c1 10-1 24 2 32 10-44 99-50 107 0 11-21 27-35 58-36 85-2 47 119 55 194h-31v-121c0-29-5-49-35-48" id="af"/><path fill="#333" d="M179-190L93 31C79 59 56 82 12 73V49c39 6 53-20 64-50L1-190h34L92-34l54-156h33" id="ag"/><g id="j"><use transform="matrix(0.07407407407407404,0,0,0.07407407407407404,0,0)" xlink:href="#af"/><use transform="matrix(0.07407407407407404,0,0,0.07407407407407404,22.148148148148138,0)" xlink:href="#O"/><use transform="matrix(0.07407407407407404,0,0,0.07407407407407404,36.96296296296295,0)" xlink:href="#af"/><use transform="matrix(0.07407407407407404,0,0,0.07407407407407404,59.111111111111086,0)" xlink:href="#E"/><use transform="matrix(0.07407407407407404,0,0,0.07407407407407404,73.9259259259259,0)" xlink:href="#L"/><use transform="matrix(0.07407407407407404,0,0,0.07407407407407404,82.7407407407407,0)" xlink:href="#ag"/><use transform="matrix(0.07407407407407404,0,0,0.07407407407407404,96.07407407407403,0)" xlink:href="#Z"/><use transform="matrix(0.07407407407407404,0,0,0.07407407407407404,115.25925925925921,0)" xlink:href="#E"/><use transform="matrix(0.07407407407407404,0,0,0.07407407407407404,130.07407407407402,0)" xlink:href="#F"/><use transform="matrix(0.07407407407407404,0,0,0.07407407407407404,144.88888888888883,0)" xlink:href="#F"/><use transform="matrix(0.07407407407407404,0,0,0.07407407407407404,159.70370370370364,0)" xlink:href="#O"/><use transform="matrix(0.07407407407407404,0,0,0.07407407407407404,174.51851851851845,0)" xlink:href="#aa"/><use transform="matrix(0.07407407407407404,0,0,0.07407407407407404,187.85185185185176,0)" xlink:href="#I"/><use transform="matrix(0.07407407407407404,0,0,0.07407407407407404,195.25925925925915,0)" xlink:href="#H"/><use transform="matrix(0.07407407407407404,0,0,0.07407407407407404,201.111111111111,0)" xlink:href="#E"/><use transform="matrix(0.07407407407407404,0,0,0.07407407407407404,215.9259259259258,0)" xlink:href="#F"/></g><path fill="#333" d="M115-194c55 1 70 41 70 98S169 2 115 4C84 4 66-9 55-30l1 105H24l-1-265h31l2 30c10-21 28-34 59-34zm-8 174c40 0 45-34 45-75s-6-73-45-74c-42 0-51 32-51 76 0 43 10 73 51 73" id="ah"/><g id="k"><use transform="matrix(0.07407407407407404,0,0,0.07407407407407404,0,0)" xlink:href="#aa"/><use transform="matrix(0.07407407407407404,0,0,0.07407407407407404,13.333333333333327,0)" xlink:href="#ah"/><use transform="matrix(0.07407407407407404,0,0,0.07407407407407404,28.148148148148135,0)" xlink:href="#M"/><use transform="matrix(0.07407407407407404,0,0,0.07407407407407404,42.96296296296295,0)" xlink:href="#Z"/><use transform="matrix(0.07407407407407404,0,0,0.07407407407407404,62.14814814814811,0)" xlink:href="#E"/><use transform="matrix(0.07407407407407404,0,0,0.07407407407407404,76.96296296296292,0)" xlink:href="#F"/><use transform="matrix(0.07407407407407404,0,0,0.07407407407407404,91.77777777777771,0)" xlink:href="#F"/><use transform="matrix(0.07407407407407404,0,0,0.07407407407407404,106.59259259259255,0)" xlink:href="#O"/><use transform="matrix(0.07407407407407404,0,0,0.07407407407407404,121.40740740740736,0)" xlink:href="#aa"/><use transform="matrix(0.07407407407407404,0,0,0.07407407407407404,134.74074074074068,0)" xlink:href="#I"/><use transform="matrix(0.07407407407407404,0,0,0.07407407407407404,142.14814814814807,0)" xlink:href="#H"/><use transform="matrix(0.07407407407407404,0,0,0.07407407407407404,147.99999999999991,0)" xlink:href="#E"/><use transform="matrix(0.07407407407407404,0,0,0.07407407407407404,162.81481481481472,0)" xlink:href="#F"/></g><path fill="#333" d="M24-248c93 1 206-16 204 79-1 75-69 88-152 82V0H24v-248zm52 121c47 0 100 7 100-41 0-47-54-39-100-39v80" id="ai"/><path fill="#333" d="M238-95c0 69-44 99-111 99C63 4 22-25 22-93v-155h51v151c-1 38 19 59 55 60 90 1 49-130 58-211h52v153" id="aj"/><g id="l"><use transform="matrix(0.07407407407407404,0,0,0.07407407407407404,0,0)" xlink:href="#R"/><use transform="matrix(0.07407407407407404,0,0,0.07407407407407404,19.185185185185176,0)" xlink:href="#ai"/><use transform="matrix(0.07407407407407404,0,0,0.07407407407407404,36.96296296296295,0)" xlink:href="#aj"/></g><g id="m"><use transform="matrix(0.07407407407407404,0,0,0.07407407407407404,0,0)" xlink:href="#af"/><use transform="matrix(0.07407407407407404,0,0,0.07407407407407404,22.148148148148138,0)" xlink:href="#O"/><use transform="matrix(0.07407407407407404,0,0,0.07407407407407404,36.96296296296295,0)" xlink:href="#af"/><use transform="matrix(0.07407407407407404,0,0,0.07407407407407404,59.111111111111086,0)" xlink:href="#E"/><use transform="matrix(0.07407407407407404,0,0,0.07407407407407404,73.9259259259259,0)" xlink:href="#L"/><use transform="matrix(0.07407407407407404,0,0,0.07407407407407404,82.7407407407407,0)" xlink:href="#ag"/><use transform="matrix(0.07407407407407404,0,0,0.07407407407407404,96.07407407407403,0)" xlink:href="#Z"/><use transform="matrix(0.07407407407407404,0,0,0.07407407407407404,115.25925925925921,0)" xlink:href="#E"/><use transform="matrix(0.07407407407407404,0,0,0.07407407407407404,130.07407407407402,0)" xlink:href="#F"/><use transform="matrix(0.07407407407407404,0,0,0.07407407407407404,144.88888888888883,0)" xlink:href="#F"/><use transform="matrix(0.07407407407407404,0,0,0.07407407407407404,159.70370370370364,0)" xlink:href="#O"/><use transform="matrix(0.07407407407407404,0,0,0.07407407407407404,174.51851851851845,0)" xlink:href="#aa"/><use transform="matrix(0.07407407407407404,0,0,0.07407407407407404,187.85185185185176,0)" xlink:href="#I"/><use transform="matrix(0.07407407407407404,0,0,0.07407407407407404,195.25925925925915,0)" xlink:href="#H"/><use transform="matrix(0.07407407407407404,0,0,0.07407407407407404,201.111111111111,0)" xlink:href="#E"/><use transform="matrix(0.07407407407407404,0,0,0.07407407407407404,215.9259259259258,0)" xlink:href="#F"/></g><path fill="#333" d="M230 0l2-204L168 0h-37L68-204 70 0H24v-248h70l56 185 57-185h69V0h-46" id="ak"/><path fill="#333" d="M220-157c-53 9-28 100-34 157h-49v-107c1-27-5-49-29-50C55-147 81-57 75 0H25l-1-190h47c2 12-1 28 3 38 10-53 101-56 108 0 13-22 24-43 59-42 82 1 51 116 57 194h-49v-107c-1-25-5-48-29-50" id="al"/><path fill="#333" d="M123 10C108 53 80 86 19 72V37c35 8 53-11 59-39L3-190h52l48 148c12-52 28-100 44-148h51" id="am"/><g id="n"><use transform="matrix(0.07407407407407404,0,0,0.07407407407407404,0,0)" xlink:href="#ak"/><use transform="matrix(0.07407407407407404,0,0,0.07407407407407404,22.148148148148138,0)" xlink:href="#W"/><use transform="matrix(0.07407407407407404,0,0,0.07407407407407404,36.96296296296295,0)" xlink:href="#al"/><use transform="matrix(0.07407407407407404,0,0,0.07407407407407404,60.66666666666664,0)" xlink:href="#S"/><use transform="matrix(0.07407407407407404,0,0,0.07407407407407404,76.88888888888886,0)" xlink:href="#ac"/><use transform="matrix(0.07407407407407404,0,0,0.07407407407407404,87.25925925925922,0)" xlink:href="#am"/></g><g id="o"><use transform="matrix(0.07407407407407404,0,0,0.07407407407407404,0,0)" xlink:href="#ad"/><use transform="matrix(0.07407407407407404,0,0,0.07407407407407404,13.333333333333327,0)" xlink:href="#O"/><use transform="matrix(0.07407407407407404,0,0,0.07407407407407404,28.148148148148135,0)" xlink:href="#L"/><use transform="matrix(0.07407407407407404,0,0,0.07407407407407404,36.96296296296295,0)" xlink:href="#ae"/><use transform="matrix(0.07407407407407404,0,0,0.07407407407407404,50.296296296296276,0)" xlink:href="#O"/><use transform="matrix(0.07407407407407404,0,0,0.07407407407407404,65.11111111111109,0)" xlink:href="#L"/></g></defs></g></svg>